<svg width="59" height="59" viewBox="0 0 59 59" fill="none" xmlns="http://www.w3.org/2000/svg">
<path d="M16.9625 22.3708L28.7625 17.2083C29.2542 16.9625 29.7458 16.9625 30.4833 17.2083L42.2833 22.3708C43.2667 22.8625 44.25 21.6333 43.5125 20.65L31.2208 5.65417C30.4833 4.67084 29.0083 4.67084 28.2708 5.65417L15.9792 20.65C14.9958 21.6333 15.9792 22.8625 16.9625 22.3708Z" fill="white" stroke="white" stroke-width="1.5" stroke-miterlimit="10" stroke-linecap="round" stroke-linejoin="round"/>
<path d="M16.9625 36.6292L28.7625 41.7917C29.2542 42.0375 29.7458 42.0375 30.4833 41.7917L42.2833 36.6292C43.2667 36.1375 44.25 37.3667 43.5125 38.35L31.2208 53.3458C30.4833 54.3292 29.0083 54.3292 28.2708 53.3458L15.9792 38.35C14.9958 37.3667 15.9792 36.1375 16.9625 36.6292Z" fill="white" stroke="white" stroke-width="1.5" stroke-miterlimit="10" stroke-linecap="round" stroke-linejoin="round"/>
<path d="M29.5 23.1083L16.7167 29.5L29.5 35.8917L42.2833 29.5L29.5 23.1083Z" fill="white" stroke="white" stroke-width="1.5" stroke-miterlimit="10" stroke-linecap="round" stroke-linejoin="round"/>
</svg>
