<svg width="68" height="68" viewBox="0 0 68 68" fill="none" xmlns="http://www.w3.org/2000/svg">
<path d="M34 5.66667L17 22.6667L22.6667 28.3333L34 17L45.3333 28.3333L51 22.6667L34 5.66667Z" fill="white" stroke="white" stroke-width="1.5" stroke-miterlimit="10" stroke-linecap="round" stroke-linejoin="round"/>
<path d="M34 62.3333L17 45.3333L22.6667 39.6667L34 51L45.3333 39.6667L51 45.3333L34 62.3333Z" fill="white" stroke="white" stroke-width="1.5" stroke-miterlimit="10" stroke-linecap="round" stroke-linejoin="round"/>
<path d="M56.058 27.489L49.647 33.9L56.058 40.3111L62.4691 33.9L56.058 27.489Z" fill="white" stroke="white" stroke-width="1.5" stroke-miterlimit="10" stroke-linecap="round" stroke-linejoin="round"/>
<path d="M12.1415 27.4886L5.73044 33.8996L12.1415 40.3107L18.5525 33.8996L12.1415 27.4886Z" fill="white" stroke="white" stroke-width="1.5" stroke-miterlimit="10" stroke-linecap="round" stroke-linejoin="round"/>
<path d="M33.7991 26.9879L26.787 34L33.7991 41.0121L40.8112 34L33.7991 26.9879Z" fill="white" stroke="white" stroke-width="1.5" stroke-miterlimit="10" stroke-linecap="round" stroke-linejoin="round"/>
</svg>
