<svg width="74" height="74" viewBox="0 0 74 74" fill="none" xmlns="http://www.w3.org/2000/svg">
<path d="M61.6667 10.7917H16.9583C16.0333 10.7917 15.1083 11.1 14.4917 12.025L9.86667 18.1917C8.325 20.35 9.86667 23.125 12.3333 23.125H57.0417C57.9667 23.125 58.8917 22.8167 59.5083 21.8917L64.1333 15.725C65.675 13.5667 64.1333 10.7917 61.6667 10.7917Z" fill="white" stroke="white" stroke-width="1.5" stroke-miterlimit="10"/>
<path d="M12.3333 30.8333H57.0417C57.9667 30.8333 58.8917 31.1417 59.5083 32.0667L64.1333 38.2333C65.675 40.3917 64.1333 43.1667 61.6667 43.1667H16.9583C16.0333 43.1667 15.1083 42.8583 14.4917 41.9333L9.86667 35.7667C8.325 33.6083 9.86667 30.8333 12.3333 30.8333Z" fill="white" stroke="white" stroke-width="1.5" stroke-miterlimit="10"/>
<path d="M61.6667 50.875H16.9583C16.0333 50.875 15.1083 51.1833 14.4917 52.1083L9.86667 58.275C8.325 60.4333 9.86667 63.2083 12.3333 63.2083H57.0417C57.9667 63.2083 58.8917 62.9 59.5083 61.975L64.1333 55.8083C65.675 53.65 64.1333 50.875 61.6667 50.875Z" fill="white" stroke="white" stroke-width="1.5" stroke-miterlimit="10"/>
</svg>
