<svg width="28" height="28" viewBox="0 0 28 28" fill="none" xmlns="http://www.w3.org/2000/svg">
<path d="M14 0.666656C6.62667 0.666656 0.666672 6.62666 0.666672 14C0.666672 21.3733 6.62667 27.3333 14 27.3333C21.3733 27.3333 27.3333 21.3733 27.3333 14C27.3333 6.62666 21.3733 0.666656 14 0.666656ZM19.7333 19.7333C19.2133 20.2533 18.3733 20.2533 17.8533 19.7333L14 15.88L10.1467 19.7333C9.62667 20.2533 8.78667 20.2533 8.26667 19.7333C7.74667 19.2133 7.74667 18.3733 8.26667 17.8533L12.12 14L8.26667 10.1467C7.74667 9.62666 7.74667 8.78666 8.26667 8.26666C8.78667 7.74666 9.62667 7.74666 10.1467 8.26666L14 12.12L17.8533 8.26666C18.3733 7.74666 19.2133 7.74666 19.7333 8.26666C20.2533 8.78666 20.2533 9.62666 19.7333 10.1467L15.88 14L19.7333 17.8533C20.24 18.36 20.24 19.2133 19.7333 19.7333Z" fill="white"/>
</svg>
