<svg width="25" height="25" viewBox="0 0 25 25" fill="none" xmlns="http://www.w3.org/2000/svg">
<path d="M20.8332 3.9563H6.3332C6.0332 3.9563 5.7332 4.0563 5.5332 4.3563L4.0332 6.3563C3.5332 7.0563 4.0332 7.9563 4.8332 7.9563H19.3332C19.6332 7.9563 19.9332 7.8563 20.1332 7.5563L21.6332 5.5563C22.1332 4.8563 21.6332 3.9563 20.8332 3.9563Z" stroke="white" stroke-width="1.5" stroke-miterlimit="10"/>
<path d="M4.8332 10.4563H19.3332C19.6332 10.4563 19.9332 10.5563 20.1332 10.8563L21.6332 12.8563C22.1332 13.5563 21.6332 14.4563 20.8332 14.4563H6.3332C6.0332 14.4563 5.7332 14.3563 5.5332 14.0563L4.0332 12.0563C3.5332 11.3563 4.0332 10.4563 4.8332 10.4563Z" stroke="white" stroke-width="1.5" stroke-miterlimit="10"/>
<path d="M20.8332 16.9563H6.3332C6.0332 16.9563 5.7332 17.0563 5.5332 17.3563L4.0332 19.3563C3.5332 20.0563 4.0332 20.9563 4.8332 20.9563H19.3332C19.6332 20.9563 19.9332 20.8563 20.1332 20.5563L21.6332 18.5563C22.1332 17.8563 21.6332 16.9563 20.8332 16.9563Z" stroke="white" stroke-width="1.5" stroke-miterlimit="10"/>
</svg>
