<svg width="25" height="25" viewBox="0 0 25 25" fill="none" xmlns="http://www.w3.org/2000/svg">
<path d="M22.833 5.89482C22.833 7.59482 22.033 9.19482 20.533 10.0948C19.233 10.8948 17.333 11.6948 14.833 11.9948V5.89482C14.833 3.89482 16.533 2.19482 18.533 2.19482H19.033C21.133 2.19482 22.833 3.89482 22.833 5.89482Z" stroke="white" stroke-width="1.5" stroke-miterlimit="10"/>
<path d="M22.8326 8.19482V18.4948C22.8326 20.5948 21.1326 22.1948 19.1326 22.1948H18.6326C16.5326 22.1948 14.9326 20.4948 14.9326 18.4948V12.0948C20.4326 11.3948 22.8326 8.19482 22.8326 8.19482Z" stroke="white" stroke-width="1.5" stroke-miterlimit="10"/>
<path d="M2.83301 18.4948C2.83301 16.7948 3.63301 15.1948 5.13301 14.2948C6.43301 13.4948 8.33301 12.6948 10.833 12.3948V18.4948C10.833 20.5948 9.13301 22.1948 7.13301 22.1948H6.53301C4.53301 22.1948 2.83301 20.4948 2.83301 18.4948Z" stroke="white" stroke-width="1.5" stroke-miterlimit="10"/>
<path d="M2.83301 16.1948V5.89482C2.83301 3.89482 4.53301 2.19482 6.53301 2.19482H7.03301C9.13301 2.19482 10.833 3.89482 10.833 5.89482V12.2948C5.23301 12.9948 2.83301 16.1948 2.83301 16.1948Z" stroke="white" stroke-width="1.5" stroke-miterlimit="10"/>
<path d="M10.833 12.2947C11.433 12.1947 12.133 12.1947 12.833 12.1947C13.533 12.1947 14.233 12.1947 14.833 12.0947" stroke="white" stroke-width="1.5" stroke-miterlimit="10"/>
</svg>
