<svg width="25" height="25" viewBox="0 0 25 25" fill="none" xmlns="http://www.w3.org/2000/svg">
<path d="M12.1334 14.4563C14.0112 14.4563 15.5334 12.934 15.5334 11.0563C15.5334 9.17848 14.0112 7.65625 12.1334 7.65625C10.2556 7.65625 8.7334 9.17848 8.7334 11.0563C8.7334 12.934 10.2556 14.4563 12.1334 14.4563Z" stroke="#0BEFD8" stroke-width="1.5" stroke-miterlimit="10"/>
<path d="M15.9326 15.2563L12.9326 18.2563" stroke="#0BEFD8" stroke-width="1.5" stroke-miterlimit="10" stroke-linecap="round" stroke-linejoin="round"/>
<path d="M12.833 22.4563C18.3559 22.4563 22.833 17.9791 22.833 12.4563C22.833 6.93345 18.3559 2.4563 12.833 2.4563C7.31016 2.4563 2.83301 6.93345 2.83301 12.4563C2.83301 17.9791 7.31016 22.4563 12.833 22.4563Z" stroke="#0BEFD8" stroke-width="1.5" stroke-miterlimit="10" stroke-linecap="round" stroke-linejoin="round"/>
<path d="M17.333 7.7688V7.7688" stroke="#0BEFD8" stroke-width="2" stroke-linecap="round" stroke-linejoin="round"/>
</svg>
