<svg width="25" height="25" viewBox="0 0 25 25" fill="none" xmlns="http://www.w3.org/2000/svg">
<path d="M11.833 2.79487L5.33301 6.59487C4.73301 6.99487 4.33301 7.59487 4.33301 8.29487V15.9949C4.33301 16.6949 4.73301 17.3949 5.33301 17.6949L11.833 21.4949C12.433 21.8949 13.233 21.8949 13.833 21.4949L20.333 17.6949C20.933 17.2949 21.333 16.6949 21.333 15.9949V8.29487C21.333 7.59487 20.933 6.89487 20.333 6.59487L13.833 2.79487C13.233 2.39487 12.433 2.39487 11.833 2.79487Z" stroke="white" stroke-width="1.5" stroke-miterlimit="10" stroke-linecap="round" stroke-linejoin="round"/>
<path d="M17.833 9.19482L12.833 6.19482L7.83301 9.19482L17.833 15.1948L12.833 18.1948L7.83301 15.1948" stroke="white" stroke-width="1.5" stroke-miterlimit="10" stroke-linecap="round" stroke-linejoin="round"/>
<path d="M12.333 10.1948L10.333 12.1948" stroke="white" stroke-width="1.5" stroke-miterlimit="10" stroke-linecap="round" stroke-linejoin="round"/>
<path d="M15.333 12.1948L13.333 14.1948" stroke="white" stroke-width="1.5" stroke-miterlimit="10" stroke-linecap="round" stroke-linejoin="round"/>
</svg>
