<svg width="25" height="25" viewBox="0 0 25 25" fill="none" xmlns="http://www.w3.org/2000/svg">
<path d="M17.833 17.4563C20.5944 17.4563 22.833 15.2177 22.833 12.4563C22.833 9.69488 20.5944 7.4563 17.833 7.4563C15.0716 7.4563 12.833 9.69488 12.833 12.4563C12.833 15.2177 15.0716 17.4563 17.833 17.4563Z" stroke="white" stroke-width="1.5" stroke-miterlimit="10" stroke-linecap="round" stroke-linejoin="round"/>
<path d="M12.833 22.4563C15.5944 22.4563 17.833 20.2177 17.833 17.4563C17.833 14.6949 15.5944 12.4563 12.833 12.4563C10.0716 12.4563 7.83301 14.6949 7.83301 17.4563C7.83301 20.2177 10.0716 22.4563 12.833 22.4563Z" stroke="white" stroke-width="1.5" stroke-miterlimit="10" stroke-linecap="round" stroke-linejoin="round"/>
<path d="M12.833 12.4563C15.5944 12.4563 17.833 10.2177 17.833 7.4563C17.833 4.69488 15.5944 2.4563 12.833 2.4563C10.0716 2.4563 7.83301 4.69488 7.83301 7.4563C7.83301 10.2177 10.0716 12.4563 12.833 12.4563Z" stroke="white" stroke-width="1.5" stroke-miterlimit="10" stroke-linecap="round" stroke-linejoin="round"/>
<path d="M7.83301 17.4563C10.5944 17.4563 12.833 15.2177 12.833 12.4563C12.833 9.69488 10.5944 7.4563 7.83301 7.4563C5.07158 7.4563 2.83301 9.69488 2.83301 12.4563C2.83301 15.2177 5.07158 17.4563 7.83301 17.4563Z" stroke="white" stroke-width="1.5" stroke-miterlimit="10" stroke-linecap="round" stroke-linejoin="round"/>
</svg>
