<svg width="25" height="25" viewBox="0 0 25 25" fill="none" xmlns="http://www.w3.org/2000/svg">
<path d="M6.53301 7.89482L2.83301 4.19482H7.83301L13.833 10.1948H9.33301C7.43301 10.1948 5.83301 11.7948 5.83301 13.6948C5.83301 15.5948 7.43301 17.1948 9.33301 17.1948H10.833L13.833 20.1948H9.33301C5.73301 20.1948 2.83301 17.2948 2.83301 13.6948C2.83301 11.1948 4.23301 8.99482 6.33301 7.89482H6.53301Z" stroke="white" stroke-width="1.5" stroke-miterlimit="10" stroke-linecap="round" stroke-linejoin="round"/>
<path d="M19.133 16.4948L22.833 20.1948H17.833L11.833 14.1948H16.333C18.233 14.1948 19.833 12.5948 19.833 10.6948C19.833 8.79482 18.233 7.19482 16.333 7.19482H14.833L11.833 4.19482H16.333C19.933 4.19482 22.833 7.09482 22.833 10.6948C22.833 13.1948 21.433 15.3948 19.333 16.4948H19.133Z" stroke="white" stroke-width="1.5" stroke-miterlimit="10" stroke-linecap="round" stroke-linejoin="round"/>
</svg>
