<svg width="25" height="25" viewBox="0 0 25 25" fill="none" xmlns="http://www.w3.org/2000/svg">
<path d="M11.2827 3.50636L7.54266 8.16636C6.69266 9.22636 6.99266 10.5864 8.20266 11.1864L11.9327 13.0564C12.4227 13.2964 13.2227 13.2964 13.7127 13.0564L17.4427 11.1864C18.6527 10.5764 18.9527 9.21636 18.1027 8.16636L14.3727 3.50636C13.5327 2.43636 12.1327 2.43636 11.2827 3.50636Z" stroke="white" stroke-width="1.5" stroke-miterlimit="10" stroke-linecap="round" stroke-linejoin="round"/>
<path d="M12.833 2.75635V8.01635" stroke="white" stroke-width="1.5" stroke-miterlimit="10" stroke-linecap="round" stroke-linejoin="round"/>
<path d="M8.63281 11.1664L12.8328 8.01636L17.0328 11.1664" stroke="white" stroke-width="1.5" stroke-miterlimit="10" stroke-linecap="round" stroke-linejoin="round"/>
<path d="M9.60312 14.8864L11.2131 15.6064C12.2431 16.0664 13.4231 16.0664 14.4631 15.6064L16.0731 14.8864C17.5131 14.2464 18.8431 15.9864 17.8431 17.2064L14.3831 21.4364C13.5331 22.4764 12.1431 22.4764 11.2831 21.4364L7.83312 17.2064C6.82312 15.9864 8.15312 14.2464 9.60312 14.8864Z" stroke="white" stroke-width="1.5" stroke-miterlimit="10" stroke-linecap="round" stroke-linejoin="round"/>
</svg>
