<svg width="25" height="25" viewBox="0 0 25 25" fill="none" xmlns="http://www.w3.org/2000/svg">
<path d="M8.83301 2.99482C10.033 2.49482 11.433 2.19482 12.833 2.19482C18.333 2.19482 22.833 6.69482 22.833 12.1948C22.833 17.6948 18.333 22.1948 12.833 22.1948C7.33301 22.1948 2.83301 17.6948 2.83301 12.1948C2.83301 10.7948 3.13301 9.39482 3.63301 8.19482" stroke="white" stroke-width="1.5" stroke-miterlimit="10" stroke-linecap="round" stroke-linejoin="round"/>
<path d="M16.8326 16.3949V12.1949C16.8326 9.89487 14.9326 7.99487 12.6326 7.99487C10.3326 7.99487 8.43262 9.89487 8.43262 12.1949C8.43262 14.4949 10.3326 16.3949 12.6326 16.3949H16.8326Z" stroke="white" stroke-width="1.5" stroke-miterlimit="10" stroke-linecap="round" stroke-linejoin="round"/>
<path d="M5.83301 6.69482C6.66143 6.69482 7.33301 6.02325 7.33301 5.19482C7.33301 4.3664 6.66143 3.69482 5.83301 3.69482C5.00458 3.69482 4.33301 4.3664 4.33301 5.19482C4.33301 6.02325 5.00458 6.69482 5.83301 6.69482Z" stroke="white" stroke-width="1.5" stroke-miterlimit="10" stroke-linecap="round" stroke-linejoin="round"/>
</svg>
