<svg width="25" height="17" viewBox="0 0 25 17" fill="none" xmlns="http://www.w3.org/2000/svg">
<path d="M22.7582 0.781738H2.35309C1.36037 0.781738 0.555664 1.58644 0.555664 2.57916V14.7085C0.555664 15.7012 1.36037 16.5059 2.35309 16.5059H22.7582C23.7509 16.5059 24.5557 15.7012 24.5557 14.7085V2.57916C24.5557 1.58644 23.751 0.781738 22.7582 0.781738Z" fill="#F5F5F5"/>
<path d="M0.654297 1.9913H24.4565C24.213 1.28738 23.5447 0.781738 22.758 0.781738H2.35286C1.56611 0.781738 0.897906 1.28738 0.654297 1.9913Z" fill="#FF4B55"/>
<path d="M24.5557 5.61963H0.555664V6.82914H24.5557V5.61963Z" fill="#FF4B55"/>
<path d="M24.5557 3.20068H0.555664V4.4102H24.5557V3.20068Z" fill="#FF4B55"/>
<path d="M0.555664 8.83481C0.555664 9.06333 0.740961 9.24863 0.969477 9.24863H24.5557V8.03906H0.555664V8.83481Z" fill="#FF4B55"/>
<path d="M24.5557 12.8774H0.555664V14.087H24.5557V12.8774Z" fill="#FF4B55"/>
<path d="M24.4566 15.2964H0.654297C0.897906 16.0003 1.56616 16.506 2.35286 16.506H22.758C23.5448 16.506 24.213 16.0003 24.4566 15.2964Z" fill="#FF4B55"/>
<path d="M24.5557 10.4585H0.555664V11.668H24.5557V10.4585Z" fill="#FF4B55"/>
<path d="M0.969477 9.24863H11.3143C11.5428 9.24863 11.7281 9.06333 11.7281 8.83482V1.19555C11.7281 0.966988 11.5428 0.781738 11.3143 0.781738H2.35309C1.36037 0.781785 0.555664 1.58649 0.555664 2.57921V8.83482C0.555664 9.06338 0.740961 9.24863 0.969477 9.24863Z" fill="#41479B"/>
<path d="M1.71752 1.73176L1.80912 2.00644L2.09867 2.00865C2.13617 2.00897 2.15168 2.05679 2.12154 2.07905L1.88862 2.25104L1.97599 2.52708C1.98734 2.5628 1.9466 2.59243 1.91609 2.57058L1.68054 2.40226L1.44499 2.57063C1.41448 2.59247 1.37384 2.56285 1.38509 2.52713L1.47246 2.25108L1.23954 2.0791C1.2094 2.05679 1.22492 2.00897 1.26242 2.00869L1.55196 2.00649L1.64356 1.7318C1.65537 1.69618 1.70562 1.69618 1.71752 1.73176Z" fill="#F5F5F5"/>
<path d="M1.71752 3.16873L1.80912 3.44342L2.09867 3.44562C2.13617 3.44595 2.15168 3.49372 2.12154 3.51603L1.88862 3.68806L1.97599 3.96411C1.98734 3.99983 1.9466 4.02945 1.91609 4.00761L1.68054 3.83928L1.44499 4.00766C1.41448 4.02945 1.37384 3.99987 1.38509 3.96416L1.47246 3.68811L1.23954 3.51608C1.2094 3.49376 1.22492 3.446 1.26242 3.44567L1.55196 3.44347L1.64356 3.16878C1.65537 3.1332 1.70562 3.1332 1.71752 3.16873Z" fill="#F5F5F5"/>
<path d="M1.71752 4.60578L1.80912 4.88047L2.09867 4.88267C2.13617 4.883 2.15168 4.93076 2.12154 4.95308L1.88862 5.12511L1.97599 5.40115C1.98734 5.43687 1.9466 5.4665 1.91609 5.44465L1.68054 5.27633L1.44499 5.4447C1.41448 5.4665 1.37384 5.43697 1.38509 5.4012L1.47246 5.12515L1.23954 4.95312C1.2094 4.93081 1.22492 4.88304 1.26242 4.88272L1.55196 4.88051L1.64356 4.60583C1.65537 4.5702 1.70562 4.5702 1.71752 4.60578Z" fill="#F5F5F5"/>
<path d="M1.71752 6.0423L1.80912 6.31699L2.09867 6.31919C2.13617 6.31952 2.15168 6.36733 2.12154 6.3896L1.88862 6.56163L1.97599 6.83768C1.98734 6.8734 1.9466 6.90302 1.91609 6.88118L1.68054 6.71285L1.44499 6.88122C1.41448 6.90302 1.37384 6.87344 1.38509 6.83772L1.47246 6.56168L1.23954 6.38965C1.2094 6.36743 1.22492 6.31957 1.26242 6.31924L1.55196 6.31704L1.64356 6.04235C1.65537 6.00672 1.70562 6.00672 1.71752 6.0423Z" fill="#F5F5F5"/>
<path d="M1.71752 7.47928L1.80912 7.75397L2.09867 7.75617C2.13617 7.7565 2.15168 7.80426 2.12154 7.82658L1.88862 7.99861L1.97599 8.27465C1.98734 8.31037 1.9466 8.34 1.91609 8.31815L1.68054 8.14982L1.44499 8.3182C1.41448 8.34 1.37384 8.31042 1.38509 8.2747L1.47246 7.99865L1.23954 7.82662C1.2094 7.80431 1.22492 7.75654 1.26242 7.75622L1.55196 7.75401L1.64356 7.47933C1.65537 7.44375 1.70562 7.44375 1.71752 7.47928Z" fill="#F5F5F5"/>
<path d="M2.83276 2.43632L2.92435 2.711L3.2139 2.71321C3.2514 2.71354 3.26692 2.76135 3.23677 2.78361L3.00385 2.95564L3.09123 3.23169C3.10257 3.26741 3.06184 3.29703 3.03132 3.27519L2.79577 3.10682L2.56023 3.27519C2.52971 3.29699 2.48907 3.26741 2.50032 3.23169L2.5877 2.95564L2.35477 2.78361C2.32463 2.7613 2.34015 2.71354 2.37765 2.71321L2.6672 2.711L2.75879 2.43632C2.7706 2.40079 2.8209 2.40079 2.83276 2.43632Z" fill="#F5F5F5"/>
<path d="M2.83276 3.87336L2.92435 4.14805L3.2139 4.15025C3.2514 4.15058 3.26692 4.1984 3.23677 4.22066L3.00385 4.39269L3.09123 4.66874C3.10257 4.70446 3.06184 4.73408 3.03132 4.71224L2.79577 4.54386L2.56023 4.71224C2.52971 4.73404 2.48907 4.7045 2.50032 4.66874L2.5877 4.39269L2.35477 4.22066C2.32463 4.19844 2.34015 4.15058 2.37765 4.15025L2.6672 4.14805L2.75879 3.87336C2.7706 3.83779 2.8209 3.83779 2.83276 3.87336Z" fill="#F5F5F5"/>
<path d="M2.83276 5.30989L2.92435 5.58457L3.2139 5.58678C3.2514 5.58711 3.26692 5.63487 3.23677 5.65718L3.00385 5.82922L3.09123 6.10526C3.10257 6.14098 3.06184 6.17061 3.03132 6.14876L2.79577 5.98039L2.56023 6.14876C2.52971 6.17056 2.48907 6.14098 2.50032 6.10526L2.5877 5.82922L2.35477 5.65718C2.32463 5.63487 2.34015 5.58711 2.37765 5.58678L2.6672 5.58457L2.75879 5.30989C2.7706 5.27431 2.8209 5.27431 2.83276 5.30989Z" fill="#F5F5F5"/>
<path d="M2.83276 6.74686L2.92435 7.02155L3.2139 7.02375C3.2514 7.02408 3.26692 7.07185 3.23677 7.09416L3.00385 7.26619L3.09123 7.54224C3.10257 7.57796 3.06184 7.60758 3.03132 7.58574L2.79577 7.41736L2.56023 7.58574C2.52971 7.60758 2.48907 7.57796 2.50032 7.54224L2.5877 7.26619L2.35477 7.09416C2.32463 7.07185 2.34015 7.02408 2.37765 7.02375L2.6672 7.02155L2.75879 6.74686C2.7706 6.71133 2.8209 6.71133 2.83276 6.74686Z" fill="#F5F5F5"/>
<path d="M3.94799 1.73176L4.03959 2.00645L4.32913 2.00865C4.36663 2.00898 4.38215 2.05679 4.35201 2.07906L4.11909 2.25104L4.20646 2.52709C4.2178 2.56281 4.17707 2.59243 4.14655 2.57059L3.91101 2.40222L3.67546 2.57059C3.64495 2.59243 3.60431 2.56281 3.61556 2.52709L3.70293 2.25104L3.47001 2.07906C3.43987 2.05675 3.45538 2.00893 3.49288 2.00865L3.78243 2.00645L3.87402 1.73176C3.88584 1.69618 3.93613 1.69618 3.94799 1.73176Z" fill="#F5F5F5"/>
<path d="M3.94799 3.16874L4.03959 3.44343L4.32913 3.44563C4.36663 3.44596 4.38215 3.49372 4.35201 3.51604L4.11909 3.68807L4.20646 3.96411C4.2178 3.99983 4.17707 4.02946 4.14655 4.00761L3.91101 3.83924L3.67546 4.00761C3.64495 4.02941 3.60431 3.99983 3.61556 3.96411L3.70293 3.68807L3.47001 3.51604C3.43987 3.49372 3.45538 3.44596 3.49288 3.44563L3.78243 3.44343L3.87402 3.16874C3.88584 3.13321 3.93613 3.13321 3.94799 3.16874Z" fill="#F5F5F5"/>
<path d="M3.94799 4.60579L4.03959 4.88047L4.32913 4.88268C4.36663 4.883 4.38215 4.93077 4.35201 4.95308L4.11909 5.12511L4.20646 5.40116C4.2178 5.43688 4.17707 5.4665 4.14655 5.44466L3.91101 5.27629L3.67546 5.44466C3.64495 5.46646 3.60431 5.43693 3.61556 5.40116L3.70293 5.12511L3.47001 4.95308C3.43987 4.93077 3.45538 4.883 3.49288 4.88268L3.78243 4.88047L3.87402 4.60579C3.88584 4.57021 3.93613 4.57021 3.94799 4.60579Z" fill="#F5F5F5"/>
<path d="M3.94799 6.04231L4.03959 6.317L4.32913 6.3192C4.36663 6.31953 4.38215 6.36734 4.35201 6.38961L4.11909 6.56164L4.20646 6.83769C4.2178 6.8734 4.17707 6.90303 4.14655 6.88118L3.91101 6.71281L3.67546 6.88118C3.64495 6.90298 3.60431 6.8734 3.61556 6.83769L3.70293 6.56164L3.47001 6.38961C3.43987 6.36739 3.45538 6.31953 3.49288 6.3192L3.78243 6.317L3.87402 6.04231C3.88584 6.00673 3.93613 6.00673 3.94799 6.04231Z" fill="#F5F5F5"/>
<path d="M3.94799 7.47929L4.03959 7.75397L4.32913 7.75618C4.36663 7.7565 4.38215 7.80427 4.35201 7.82658L4.11909 7.99861L4.20646 8.27466C4.2178 8.31038 4.17707 8.34 4.14655 8.31816L3.91101 8.14978L3.67546 8.31816C3.64495 8.33996 3.60431 8.31038 3.61556 8.27466L3.70293 7.99861L3.47001 7.82658C3.43987 7.80427 3.45538 7.7565 3.49288 7.75618L3.78243 7.75397L3.87402 7.47929C3.88584 7.44375 3.93613 7.44375 3.94799 7.47929Z" fill="#F5F5F5"/>
<path d="M5.06323 2.43632L5.15482 2.711L5.44437 2.71321C5.48187 2.71354 5.49738 2.76135 5.46724 2.78361L5.23432 2.95564L5.3217 3.23169C5.33304 3.26741 5.29231 3.29703 5.26179 3.27519L5.02624 3.10682L4.7907 3.27519C4.76018 3.29699 4.71954 3.26741 4.73079 3.23169L4.81817 2.95564L4.58524 2.78361C4.5551 2.7613 4.57062 2.71354 4.60812 2.71321L4.89767 2.711L4.98926 2.43632C5.00102 2.40079 5.05137 2.40079 5.06323 2.43632Z" fill="#F5F5F5"/>
<path d="M5.06323 3.87336L5.15482 4.14805L5.44437 4.15025C5.48187 4.15058 5.49738 4.1984 5.46724 4.22066L5.23432 4.39269L5.3217 4.66874C5.33304 4.70446 5.29231 4.73408 5.26179 4.71224L5.02624 4.54386L4.7907 4.71224C4.76018 4.73404 4.71954 4.7045 4.73079 4.66874L4.81817 4.39269L4.58524 4.22066C4.5551 4.19844 4.57062 4.15058 4.60812 4.15025L4.89767 4.14805L4.98926 3.87336C5.00102 3.83779 5.05137 3.83779 5.06323 3.87336Z" fill="#F5F5F5"/>
<path d="M5.06323 5.30989L5.15482 5.58457L5.44437 5.58678C5.48187 5.58711 5.49738 5.63487 5.46724 5.65718L5.23432 5.82922L5.3217 6.10526C5.33304 6.14098 5.29231 6.17061 5.26179 6.14876L5.02624 5.98039L4.7907 6.14876C4.76018 6.17056 4.71954 6.14098 4.73079 6.10526L4.81817 5.82922L4.58524 5.65718C4.5551 5.63487 4.57062 5.58711 4.60812 5.58678L4.89767 5.58457L4.98926 5.30989C5.00102 5.27431 5.05137 5.27431 5.06323 5.30989Z" fill="#F5F5F5"/>
<path d="M5.06323 6.74686L5.15482 7.02155L5.44437 7.02375C5.48187 7.02408 5.49738 7.07185 5.46724 7.09416L5.23432 7.26619L5.3217 7.54224C5.33304 7.57796 5.29231 7.60758 5.26179 7.58574L5.02624 7.41736L4.7907 7.58574C4.76018 7.60758 4.71954 7.57796 4.73079 7.54224L4.81817 7.26619L4.58524 7.09416C4.5551 7.07185 4.57062 7.02408 4.60812 7.02375L4.89767 7.02155L4.98926 6.74686C5.00102 6.71133 5.05137 6.71133 5.06323 6.74686Z" fill="#F5F5F5"/>
<path d="M6.17851 1.73176L6.2701 2.00644L6.55965 2.00865C6.59715 2.00897 6.61266 2.05679 6.58252 2.07905L6.3496 2.25104L6.43698 2.52708C6.44832 2.5628 6.40759 2.59243 6.37707 2.57058L6.14148 2.40226L5.90593 2.57063C5.87542 2.59247 5.83477 2.56285 5.84602 2.52713L5.9334 2.25108L5.70048 2.0791C5.67034 2.05679 5.68585 2.00897 5.72335 2.00869L6.0129 2.00649L6.10449 1.7318C6.11635 1.69618 6.16665 1.69618 6.17851 1.73176Z" fill="#F5F5F5"/>
<path d="M6.17851 3.16874L6.2701 3.44343L6.55965 3.44563C6.59715 3.44596 6.61266 3.49372 6.58252 3.51604L6.3496 3.68807L6.43698 3.96411C6.44832 3.99983 6.40759 4.02946 6.37707 4.00761L6.14148 3.83924L5.90593 4.00761C5.87542 4.02941 5.83477 3.99983 5.84602 3.96411L5.9334 3.68807L5.70048 3.51604C5.67034 3.49372 5.68585 3.44596 5.72335 3.44563L6.0129 3.44343L6.10449 3.16874C6.11635 3.13321 6.16665 3.13321 6.17851 3.16874Z" fill="#F5F5F5"/>
<path d="M6.17851 4.60579L6.2701 4.88048L6.55965 4.88268C6.59715 4.88301 6.61266 4.93078 6.58252 4.95309L6.3496 5.12512L6.43698 5.40117C6.44832 5.43688 6.40759 5.46651 6.37707 5.44467L6.14148 5.27624L5.90593 5.44462C5.87542 5.46642 5.83477 5.43684 5.84602 5.40112L5.9334 5.12507L5.70048 4.95304C5.67034 4.93073 5.68585 4.88296 5.72335 4.88263L6.0129 4.88043L6.10449 4.60574C6.11635 4.57021 6.16665 4.57021 6.17851 4.60579Z" fill="#F5F5F5"/>
<path d="M6.17851 6.04231L6.2701 6.317L6.55965 6.3192C6.59715 6.31953 6.61266 6.36734 6.58252 6.38961L6.3496 6.56164L6.43698 6.83769C6.44832 6.8734 6.40759 6.90303 6.37707 6.88118L6.14148 6.71281L5.90593 6.88118C5.87542 6.90298 5.83477 6.8734 5.84602 6.83769L5.9334 6.56164L5.70048 6.38961C5.67034 6.36739 5.68585 6.31953 5.72335 6.3192L6.0129 6.317L6.10449 6.04231C6.11635 6.00673 6.16665 6.00673 6.17851 6.04231Z" fill="#F5F5F5"/>
<path d="M6.17851 7.47929L6.2701 7.75397L6.55965 7.75618C6.59715 7.7565 6.61266 7.80427 6.58252 7.82658L6.3496 7.99861L6.43698 8.27466C6.44832 8.31038 6.40759 8.34 6.37707 8.31816L6.14148 8.14978L5.90593 8.31816C5.87542 8.33996 5.83477 8.31038 5.84602 8.27466L5.9334 7.99861L5.70048 7.82658C5.67034 7.80427 5.68585 7.7565 5.72335 7.75618L6.0129 7.75397L6.10449 7.47929C6.11635 7.44375 6.16665 7.44375 6.17851 7.47929Z" fill="#F5F5F5"/>
<path d="M7.29369 2.43632L7.38529 2.711L7.67483 2.71321C7.71233 2.71354 7.72785 2.76135 7.69771 2.78361L7.46479 2.95564L7.55216 3.23169C7.56351 3.26741 7.52277 3.29703 7.49226 3.27519L7.25671 3.10682L7.02116 3.27519C6.99065 3.29699 6.95001 3.26741 6.96126 3.23169L7.04863 2.95564L6.81571 2.78361C6.78557 2.7613 6.80109 2.71354 6.83859 2.71321L7.12813 2.711L7.21973 2.43632C7.23159 2.40079 7.28184 2.40079 7.29369 2.43632Z" fill="#F5F5F5"/>
<path d="M7.29369 3.87336L7.38529 4.14805L7.67483 4.15025C7.71233 4.15058 7.72785 4.1984 7.69771 4.22066L7.46479 4.39269L7.55216 4.66874C7.56351 4.70446 7.52277 4.73408 7.49226 4.71224L7.25671 4.54386L7.02116 4.71224C6.99065 4.73404 6.95001 4.7045 6.96126 4.66874L7.04863 4.39269L6.81571 4.22066C6.78557 4.19844 6.80109 4.15058 6.83859 4.15025L7.12813 4.14805L7.21973 3.87336C7.23159 3.83779 7.28184 3.83779 7.29369 3.87336Z" fill="#F5F5F5"/>
<path d="M7.29369 5.30989L7.38529 5.58457L7.67483 5.58678C7.71233 5.58711 7.72785 5.63487 7.69771 5.65718L7.46479 5.82922L7.55216 6.10526C7.56351 6.14098 7.52277 6.17061 7.49226 6.14876L7.25671 5.98039L7.02116 6.14876C6.99065 6.17056 6.95001 6.14098 6.96126 6.10526L7.04863 5.82922L6.81571 5.65718C6.78557 5.63487 6.80109 5.58711 6.83859 5.58678L7.12813 5.58457L7.21973 5.30989C7.23159 5.27431 7.28184 5.27431 7.29369 5.30989Z" fill="#F5F5F5"/>
<path d="M7.29369 6.74686L7.38529 7.02155L7.67483 7.02375C7.71233 7.02408 7.72785 7.07185 7.69771 7.09416L7.46479 7.26619L7.55216 7.54224C7.56351 7.57796 7.52277 7.60758 7.49226 7.58574L7.25671 7.41736L7.02116 7.58574C6.99065 7.60758 6.95001 7.57796 6.96126 7.54224L7.04863 7.26619L6.81571 7.09416C6.78557 7.07185 6.80109 7.02408 6.83859 7.02375L7.12813 7.02155L7.21973 6.74686C7.23159 6.71133 7.28184 6.71133 7.29369 6.74686Z" fill="#F5F5F5"/>
<path d="M8.40893 1.73176L8.50052 2.00645L8.79007 2.00865C8.82757 2.00898 8.84308 2.05679 8.81294 2.07906L8.58002 2.25104L8.6674 2.52709C8.67874 2.56281 8.63801 2.59243 8.60749 2.57059L8.37194 2.40222L8.1364 2.57059C8.10588 2.59243 8.06524 2.56281 8.07649 2.52709L8.16387 2.25104L7.93095 2.07906C7.90081 2.05675 7.91632 2.00893 7.95382 2.00865L8.24337 2.00645L8.33496 1.73176C8.34673 1.69618 8.39707 1.69618 8.40893 1.73176Z" fill="#F5F5F5"/>
<path d="M8.40893 3.16874L8.50052 3.44343L8.79007 3.44563C8.82757 3.44596 8.84308 3.49372 8.81294 3.51604L8.58002 3.68807L8.6674 3.96411C8.67874 3.99983 8.63801 4.02946 8.60749 4.00761L8.37194 3.83924L8.1364 4.00761C8.10588 4.02941 8.06524 3.99983 8.07649 3.96411L8.16387 3.68807L7.93095 3.51604C7.90081 3.49372 7.91632 3.44596 7.95382 3.44563L8.24337 3.44343L8.33496 3.16874C8.34673 3.13321 8.39707 3.13321 8.40893 3.16874Z" fill="#F5F5F5"/>
<path d="M8.40893 4.60579L8.50052 4.88047L8.79007 4.88268C8.82757 4.883 8.84308 4.93077 8.81294 4.95308L8.58002 5.12511L8.6674 5.40116C8.67874 5.43688 8.63801 5.4665 8.60749 5.44466L8.37194 5.27629L8.1364 5.44466C8.10588 5.46646 8.06524 5.43693 8.07649 5.40116L8.16387 5.12511L7.93095 4.95308C7.90081 4.93077 7.91632 4.883 7.95382 4.88268L8.24337 4.88047L8.33496 4.60579C8.34673 4.57021 8.39707 4.57021 8.40893 4.60579Z" fill="#F5F5F5"/>
<path d="M8.40893 6.04231L8.50052 6.317L8.79007 6.3192C8.82757 6.31953 8.84308 6.36734 8.81294 6.38961L8.58002 6.56164L8.6674 6.83769C8.67874 6.8734 8.63801 6.90303 8.60749 6.88118L8.37194 6.71281L8.1364 6.88118C8.10588 6.90298 8.06524 6.8734 8.07649 6.83769L8.16387 6.56164L7.93095 6.38961C7.90081 6.36739 7.91632 6.31953 7.95382 6.3192L8.24337 6.317L8.33496 6.04231C8.34673 6.00673 8.39707 6.00673 8.40893 6.04231Z" fill="#F5F5F5"/>
<path d="M8.40893 7.47929L8.50052 7.75397L8.79007 7.75618C8.82757 7.7565 8.84308 7.80427 8.81294 7.82658L8.58002 7.99861L8.6674 8.27466C8.67874 8.31038 8.63801 8.34 8.60749 8.31816L8.37194 8.14978L8.1364 8.31816C8.10588 8.33996 8.06524 8.31038 8.07649 8.27466L8.16387 7.99861L7.93095 7.82658C7.90081 7.80427 7.91632 7.7565 7.95382 7.75618L8.24337 7.75397L8.33496 7.47929C8.34673 7.44375 8.39707 7.44375 8.40893 7.47929Z" fill="#F5F5F5"/>
<path d="M9.52514 2.43632L9.61673 2.711L9.90628 2.71321C9.94378 2.71354 9.9593 2.76135 9.92916 2.78361L9.69623 2.95564L9.78361 3.23169C9.79495 3.26741 9.75422 3.29703 9.7237 3.27519L9.48816 3.10682L9.25261 3.27519C9.22209 3.29699 9.18145 3.26741 9.1927 3.23169L9.28008 2.95564L9.04716 2.78361C9.01702 2.7613 9.03253 2.71354 9.07003 2.71321L9.35958 2.711L9.45117 2.43632C9.46299 2.40079 9.51328 2.40079 9.52514 2.43632Z" fill="#F5F5F5"/>
<path d="M9.52514 3.87336L9.61673 4.14805L9.90628 4.15025C9.94378 4.15058 9.9593 4.1984 9.92916 4.22066L9.69623 4.39269L9.78361 4.66874C9.79495 4.70446 9.75422 4.73408 9.7237 4.71224L9.48816 4.54386L9.25261 4.71224C9.22209 4.73404 9.18145 4.7045 9.1927 4.66874L9.28008 4.39269L9.04716 4.22066C9.01702 4.19844 9.03253 4.15058 9.07003 4.15025L9.35958 4.14805L9.45117 3.87336C9.46299 3.83779 9.51328 3.83779 9.52514 3.87336Z" fill="#F5F5F5"/>
<path d="M9.52514 5.30989L9.61673 5.58457L9.90628 5.58678C9.94378 5.58711 9.9593 5.63487 9.92916 5.65718L9.69623 5.82922L9.78361 6.10526C9.79495 6.14098 9.75422 6.17061 9.7237 6.14876L9.48816 5.98039L9.25261 6.14876C9.22209 6.17056 9.18145 6.14098 9.1927 6.10526L9.28008 5.82922L9.04716 5.65718C9.01702 5.63487 9.03253 5.58711 9.07003 5.58678L9.35958 5.58457L9.45117 5.30989C9.46299 5.27431 9.51328 5.27431 9.52514 5.30989Z" fill="#F5F5F5"/>
<path d="M9.52514 6.74686L9.61673 7.02155L9.90628 7.02375C9.94378 7.02408 9.9593 7.07185 9.92916 7.09416L9.69623 7.26619L9.78361 7.54224C9.79495 7.57796 9.75422 7.60758 9.7237 7.58574L9.48816 7.41736L9.25261 7.58574C9.22209 7.60758 9.18145 7.57796 9.1927 7.54224L9.28008 7.26619L9.04716 7.09416C9.01702 7.07185 9.03253 7.02408 9.07003 7.02375L9.35958 7.02155L9.45117 6.74686C9.46299 6.71133 9.51328 6.71133 9.52514 6.74686Z" fill="#F5F5F5"/>
<path d="M10.6404 1.73176L10.732 2.00645L11.0215 2.00865C11.059 2.00898 11.0745 2.05679 11.0444 2.07906L10.8115 2.25104L10.8988 2.52709C10.9102 2.56281 10.8695 2.59243 10.8389 2.57059L10.6034 2.40222L10.3678 2.57059C10.3373 2.59243 10.2967 2.56281 10.3079 2.52709L10.3953 2.25104L10.1624 2.07906C10.1323 2.05675 10.1478 2.00893 10.1853 2.00865L10.4748 2.00645L10.5664 1.73176C10.5782 1.69618 10.6285 1.69618 10.6404 1.73176Z" fill="#F5F5F5"/>
<path d="M10.6404 3.16874L10.732 3.44343L11.0215 3.44563C11.059 3.44596 11.0745 3.49372 11.0444 3.51604L10.8115 3.68807L10.8988 3.96411C10.9102 3.99983 10.8695 4.02946 10.8389 4.00761L10.6034 3.83924L10.3678 4.00761C10.3373 4.02941 10.2967 3.99983 10.3079 3.96411L10.3953 3.68807L10.1624 3.51604C10.1323 3.49372 10.1478 3.44596 10.1853 3.44563L10.4748 3.44343L10.5664 3.16874C10.5782 3.13321 10.6285 3.13321 10.6404 3.16874Z" fill="#F5F5F5"/>
<path d="M10.6404 4.60579L10.732 4.88047L11.0215 4.88268C11.059 4.883 11.0745 4.93077 11.0444 4.95308L10.8115 5.12511L10.8988 5.40116C10.9102 5.43688 10.8695 5.4665 10.8389 5.44466L10.6034 5.27629L10.3678 5.44466C10.3373 5.46646 10.2967 5.43693 10.3079 5.40116L10.3953 5.12511L10.1624 4.95308C10.1323 4.93077 10.1478 4.883 10.1853 4.88268L10.4748 4.88047L10.5664 4.60579C10.5782 4.57021 10.6285 4.57021 10.6404 4.60579Z" fill="#F5F5F5"/>
<path d="M10.6404 6.04231L10.732 6.317L11.0215 6.3192C11.059 6.31953 11.0745 6.36734 11.0444 6.38961L10.8115 6.56164L10.8988 6.83769C10.9102 6.8734 10.8695 6.90303 10.8389 6.88118L10.6034 6.71281L10.3678 6.88118C10.3373 6.90298 10.2967 6.8734 10.3079 6.83769L10.3953 6.56164L10.1624 6.38961C10.1323 6.36739 10.1478 6.31953 10.1853 6.3192L10.4748 6.317L10.5664 6.04231C10.5782 6.00673 10.6285 6.00673 10.6404 6.04231Z" fill="#F5F5F5"/>
<path d="M10.6404 7.47929L10.732 7.75397L11.0215 7.75618C11.059 7.7565 11.0745 7.80427 11.0444 7.82658L10.8115 7.99861L10.8988 8.27466C10.9102 8.31038 10.8695 8.34 10.8389 8.31816L10.6034 8.14978L10.3678 8.31816C10.3373 8.33996 10.2967 8.31038 10.3079 8.27466L10.3953 7.99861L10.1624 7.82658C10.1323 7.80427 10.1478 7.7565 10.1853 7.75618L10.4748 7.75397L10.5664 7.47929C10.5782 7.44375 10.6285 7.44375 10.6404 7.47929Z" fill="#F5F5F5"/>
</svg>
