<svg width="26" height="26" viewBox="0 0 26 26" fill="none" xmlns="http://www.w3.org/2000/svg">
<g opacity="0.5" clip-path="url(#clip0_558_6406)">
<path d="M10.4541 13.2383C10.1103 13.2387 9.78065 13.3755 9.53753 13.6186C9.29441 13.8617 9.15764 14.1913 9.15723 14.5352C9.15723 15.2523 9.73848 15.8477 10.4541 15.8336C10.7905 15.8219 11.1092 15.6801 11.343 15.438C11.5768 15.1959 11.7075 14.8725 11.7075 14.5359C11.7075 14.1994 11.5768 13.8759 11.343 13.6339C11.1092 13.3918 10.7905 13.25 10.4541 13.2383ZM13.3338 18.9367C13.826 18.9367 15.526 18.8773 16.4213 17.982C16.4793 17.9159 16.5113 17.8309 16.5113 17.743C16.5113 17.655 16.4793 17.57 16.4213 17.5039C16.3903 17.4719 16.3531 17.4464 16.312 17.429C16.271 17.4116 16.2268 17.4026 16.1822 17.4026C16.1376 17.4026 16.0935 17.4116 16.0524 17.429C16.0113 17.4464 15.9742 17.4719 15.9432 17.5039C15.3916 18.0711 14.1838 18.2648 13.3338 18.2648C12.4822 18.2648 11.29 18.0711 10.7229 17.5039C10.6918 17.4719 10.6547 17.4464 10.6136 17.429C10.5725 17.4116 10.5284 17.4026 10.4838 17.4026C10.4392 17.4026 10.395 17.4116 10.354 17.429C10.3129 17.4464 10.2758 17.4719 10.2447 17.5039C10.2127 17.5349 10.1872 17.5721 10.1698 17.6132C10.1524 17.6542 10.1435 17.6984 10.1435 17.743C10.1435 17.7876 10.1524 17.8317 10.1698 17.8728C10.1872 17.9139 10.2127 17.951 10.2447 17.982C11.126 18.8617 12.826 18.9352 13.3338 18.9352V18.9367ZM14.8838 14.5508C14.8838 15.2664 15.4666 15.8477 16.1822 15.8477C16.8979 15.8477 17.4791 15.2523 17.4791 14.5508C17.4628 14.2178 17.319 13.9039 17.0776 13.6741C16.8361 13.4442 16.5156 13.316 16.1822 13.316C15.8489 13.316 15.5283 13.4442 15.2869 13.6741C15.0455 13.9039 14.9017 14.2178 14.8854 14.5508H14.8838Z" fill="url(#paint0_linear_558_6406)"/>
<path d="M25.8184 13.2383C25.8184 16.5535 24.5014 19.7329 22.1572 22.0771C19.813 24.4213 16.6336 25.7383 13.3184 25.7383C10.0032 25.7383 6.82373 24.4213 4.47952 22.0771C2.13532 19.7329 0.818359 16.5535 0.818359 13.2383C0.818359 9.92307 2.13532 6.74365 4.47952 4.39945C6.82373 2.05524 10.0032 0.738281 13.3184 0.738281C16.6336 0.738281 19.813 2.05524 22.1572 4.39945C24.5014 6.74365 25.8184 9.92307 25.8184 13.2383ZM19.8371 11.418C19.3449 11.418 18.8965 11.6117 18.5684 11.9258C17.3168 11.0305 15.5996 10.4492 13.6918 10.3742L14.5262 6.46641L17.2418 7.04766C17.2537 7.30122 17.3398 7.5457 17.4894 7.75081C17.6389 7.95591 17.8454 8.11262 18.0832 8.2015C18.3209 8.29038 18.5796 8.30752 18.827 8.25081C19.0744 8.1941 19.2997 8.06603 19.4751 7.88246C19.6504 7.6989 19.768 7.46791 19.8133 7.21815C19.8586 6.96838 19.8296 6.71081 19.7299 6.47737C19.6302 6.24392 19.4642 6.04487 19.2524 5.90488C19.0407 5.76489 18.7925 5.69012 18.5387 5.68984C18.2959 5.69069 18.0582 5.75968 17.8527 5.88896C17.6472 6.01823 17.4821 6.20261 17.3762 6.42109L14.348 5.78047C14.3073 5.77169 14.2652 5.77103 14.2242 5.77854C14.1831 5.78605 14.144 5.80157 14.109 5.82422C14.0725 5.847 14.0415 5.87759 14.0183 5.9138C13.995 5.95001 13.9801 5.99092 13.9746 6.03359L13.0496 10.3898C11.1121 10.4492 9.36523 11.0305 8.09648 11.9398C7.76836 11.6273 7.32148 11.4336 6.83086 11.4336C6.41477 11.433 6.01108 11.5752 5.68723 11.8364C5.36338 12.0977 5.13899 12.4621 5.05156 12.8689C4.96413 13.2757 5.01895 13.7002 5.20686 14.0715C5.39477 14.4427 5.70439 14.7382 6.08398 14.9086C6.05273 15.0883 6.03867 15.268 6.03867 15.4602C6.03867 18.2648 9.30586 20.5477 13.334 20.5477C17.3605 20.5477 20.6277 18.2805 20.6277 15.4602C20.6277 15.282 20.6121 15.0883 20.5824 14.9086C21.209 14.6258 21.6574 13.9836 21.6574 13.2383C21.6574 12.2227 20.8371 11.418 19.8371 11.418Z" fill="url(#paint1_linear_558_6406)"/>
</g>
<defs>
<linearGradient id="paint0_linear_558_6406" x1="13.3182" y1="13.2383" x2="13.3182" y2="18.9367" gradientUnits="userSpaceOnUse">
<stop stop-color="white"/>
<stop offset="1" stop-color="white" stop-opacity="0.35"/>
</linearGradient>
<linearGradient id="paint1_linear_558_6406" x1="13.3184" y1="0.738281" x2="13.3184" y2="25.7383" gradientUnits="userSpaceOnUse">
<stop stop-color="white"/>
<stop offset="1" stop-color="white" stop-opacity="0.35"/>
</linearGradient>
<clipPath id="clip0_558_6406">
<rect width="25" height="25" fill="white" transform="translate(0.818359 0.738281)"/>
</clipPath>
</defs>
</svg>
