<svg width="26" height="22" viewBox="0 0 26 22" fill="none" xmlns="http://www.w3.org/2000/svg">
<path d="M9.10305 14.4317C9.01972 14.6015 9.01972 14.7692 9.01972 14.938C9.10305 15.4765 9.56972 15.8724 10.1155 15.8651H11.4635V20.8401C11.4635 21.3463 11.0426 21.7672 10.5364 21.7672H7.66972C7.42451 21.7647 7.19008 21.6661 7.01688 21.4925C6.84368 21.3189 6.74557 21.0842 6.74367 20.839V15.8661H1.85201C1.09367 15.8661 0.587424 15.1067 0.924924 14.4317L8.17492 1.27863C8.27092 1.10542 8.41153 0.961066 8.58216 0.860553C8.75278 0.760039 8.94721 0.707031 9.14524 0.707031C9.34327 0.707031 9.53769 0.760039 9.70831 0.860553C9.87894 0.961066 10.0196 1.10542 10.1155 1.27863L13.1499 7.09633L9.10305 14.4317ZM25.7124 14.4317L18.4624 1.27863C18.3663 1.10567 18.2258 0.961557 18.0552 0.861219C17.8847 0.760881 17.6905 0.70797 17.4926 0.70797C17.2948 0.70797 17.1005 0.760881 16.93 0.861219C16.7595 0.961557 16.6189 1.10567 16.5228 1.27863L13.403 7.09738L17.4499 14.4307C17.5343 14.6015 17.5343 14.7703 17.5343 14.938C17.451 15.4765 16.9833 15.8724 16.4385 15.8651H15.0885V20.8401C15.0937 21.3505 15.5051 21.764 16.0155 21.7672H19.051C19.2964 21.765 19.5311 21.6667 19.7049 21.4934C19.8786 21.32 19.9774 21.0855 19.9801 20.8401V15.8661H24.7843C25.5447 15.8661 26.0489 15.1067 25.7114 14.4317H25.7124Z" fill="url(#paint0_linear_558_6405)"/>
<defs>
<linearGradient id="paint0_linear_558_6405" x1="13.3183" y1="0.707031" x2="13.3183" y2="21.7672" gradientUnits="userSpaceOnUse">
<stop stop-color="white"/>
<stop offset="1" stop-color="white" stop-opacity="0.35"/>
</linearGradient>
</defs>
</svg>
