<svg width="24" height="18" viewBox="0 0 24 18" fill="none" xmlns="http://www.w3.org/2000/svg">
<path d="M20.3078 1.96627C20.3015 1.9539 20.2909 1.94421 20.278 1.93893C18.7888 1.25567 17.2173 0.768458 15.6028 0.489476C15.5881 0.486749 15.5729 0.488717 15.5595 0.495098C15.546 0.50148 15.5348 0.511951 15.5276 0.525023C15.3137 0.913417 15.1194 1.31236 14.9456 1.72034C13.2052 1.45615 11.435 1.45615 9.6946 1.72034C9.51967 1.31133 9.3223 0.912282 9.10339 0.525023C9.09589 0.512236 9.0847 0.502005 9.07129 0.495665C9.05789 0.489325 9.04288 0.487168 9.02824 0.489476C7.41354 0.767872 5.84192 1.25512 4.35292 1.93897C4.34018 1.94437 4.32942 1.9536 4.32214 1.96537C1.34445 6.41217 0.528745 10.7496 0.928901 15.0334C0.930027 15.0439 0.933252 15.054 0.938386 15.0633C0.943519 15.0725 0.950456 15.0806 0.958784 15.0871C2.69267 16.3709 4.63204 17.3508 6.69414 17.9851C6.70866 17.9895 6.72416 17.9893 6.73857 17.9845C6.75298 17.9798 6.76559 17.9708 6.77472 17.9587C7.21761 17.3561 7.61005 16.7179 7.94804 16.0508C7.95269 16.0416 7.95534 16.0316 7.95582 16.0214C7.95631 16.0111 7.95461 16.0009 7.95085 15.9913C7.94709 15.9818 7.94135 15.9731 7.934 15.9659C7.92666 15.9588 7.91788 15.9532 7.90824 15.9497C7.28939 15.7129 6.69028 15.4275 6.11652 15.0961C6.1061 15.09 6.09734 15.0814 6.09103 15.071C6.08472 15.0607 6.08104 15.049 6.08033 15.037C6.07962 15.0249 6.08188 15.0128 6.08694 15.0018C6.09199 14.9909 6.09966 14.9813 6.10929 14.974C6.22968 14.8838 6.35015 14.7899 6.46511 14.6952C6.47533 14.6868 6.48768 14.6814 6.5008 14.6796C6.51391 14.6778 6.52726 14.6798 6.53933 14.6852C10.2983 16.4007 14.3678 16.4007 18.0823 14.6852C18.0944 14.6794 18.1079 14.6772 18.1212 14.6788C18.1345 14.6804 18.1471 14.6858 18.1575 14.6943C18.2725 14.789 18.3929 14.8838 18.5142 14.974C18.5239 14.9812 18.5316 14.9907 18.5367 15.0017C18.5419 15.0126 18.5442 15.0246 18.5436 15.0367C18.543 15.0488 18.5394 15.0605 18.5331 15.0709C18.5269 15.0812 18.5182 15.0899 18.5078 15.0961C17.9354 15.4303 17.3357 15.7155 16.7153 15.9488C16.7056 15.9525 16.6969 15.9581 16.6896 15.9654C16.6823 15.9727 16.6766 15.9814 16.6729 15.9911C16.6692 16.0007 16.6676 16.011 16.6682 16.0213C16.6688 16.0316 16.6715 16.0416 16.6762 16.0508C17.0199 16.7142 17.4117 17.3516 17.8486 17.9576C17.8575 17.9701 17.87 17.9794 17.8845 17.9843C17.899 17.9892 17.9146 17.9895 17.9292 17.985C19.995 17.3529 21.9378 16.3728 23.6738 15.0871C23.6823 15.0809 23.6893 15.073 23.6945 15.0639C23.6996 15.0548 23.7028 15.0447 23.7037 15.0343C24.1828 10.0818 22.9017 5.77991 20.3078 1.96627ZM8.50941 12.425C7.37769 12.425 6.44519 11.3865 6.44519 10.111C6.44519 8.83553 7.3596 7.7969 8.50941 7.7969C9.6682 7.7969 10.5917 8.84455 10.5736 10.1109C10.5736 11.3865 9.65913 12.425 8.50941 12.425ZM16.1414 12.425C15.0098 12.425 14.0773 11.3865 14.0773 10.111C14.0773 8.83553 14.9917 7.7969 16.1414 7.7969C17.3003 7.7969 18.2237 8.84455 18.2057 10.1109C18.2057 11.3865 17.3003 12.425 16.1414 12.425Z" fill="url(#paint0_linear_558_6412)"/>
<defs>
<linearGradient id="paint0_linear_558_6412" x1="12.3183" y1="0.488281" x2="12.3183" y2="17.9882" gradientUnits="userSpaceOnUse">
<stop stop-color="#00FFE5"/>
<stop offset="1" stop-color="#00FFE5" stop-opacity="0.35"/>
</linearGradient>
</defs>
</svg>
