<svg width="26" height="22" viewBox="0 0 26 22" fill="none" xmlns="http://www.w3.org/2000/svg">
<path d="M8.67148 21.1759C18.1059 21.1759 23.2668 13.3587 23.2668 6.59151C23.2668 6.37276 23.2668 6.15089 23.2574 5.93214C24.2622 5.20477 25.1294 4.30425 25.8184 3.27276C24.8798 3.68659 23.8852 3.95933 22.8668 4.08214C23.9395 3.44095 24.7429 2.43209 25.1277 1.24308C24.1199 1.84014 23.0168 2.25928 21.8668 2.48214C21.0936 1.65874 20.0706 1.11326 18.956 0.930196C17.8414 0.747133 16.6976 0.936703 15.7017 1.46954C14.7058 2.00238 13.9134 2.84875 13.4472 3.87754C12.981 4.90634 12.8671 6.06016 13.123 7.16026C11.0836 7.058 9.08838 6.52818 7.26686 5.60517C5.44534 4.68217 3.83818 3.38658 2.54961 1.80245C1.89545 2.93227 1.69582 4.2687 1.99124 5.54037C2.28667 6.81203 3.05501 7.92359 4.14023 8.64933C3.32702 8.6217 2.53167 8.40332 1.81836 8.01183V8.08214C1.81976 9.2657 2.22978 10.4125 2.9791 11.3286C3.72842 12.2448 4.77109 12.8741 5.93086 13.1103C5.49065 13.2315 5.03591 13.292 4.5793 13.29C4.2574 13.2909 3.93614 13.2611 3.61992 13.2009C3.94771 14.2197 4.58597 15.1105 5.44531 15.7485C6.30464 16.3865 7.34201 16.7397 8.41211 16.7587C6.59423 18.1865 4.34867 18.9609 2.03711 18.9571C1.6298 18.9589 1.22277 18.9354 0.818359 18.8868C3.16448 20.3826 5.88914 21.1767 8.67148 21.1759Z" fill="url(#paint0_linear_558_6414)"/>
<defs>
<linearGradient id="paint0_linear_558_6414" x1="13.3184" y1="0.862305" x2="13.3184" y2="21.1759" gradientUnits="userSpaceOnUse">
<stop stop-color="white"/>
<stop offset="1" stop-color="white" stop-opacity="0.35"/>
</linearGradient>
</defs>
</svg>
