<svg width="41" height="34" viewBox="0 0 41 34" fill="none" xmlns="http://www.w3.org/2000/svg">
<path d="M13.3102 22.1099C13.1769 22.3816 13.1769 22.6499 13.1769 22.9199C13.3102 23.7816 14.0569 24.4149 14.9302 24.4033H17.0869V32.3633C17.0869 33.1733 16.4135 33.8466 15.6035 33.8466H11.0169C10.6245 33.8427 10.2494 33.6849 9.97232 33.4071C9.6952 33.1294 9.53823 32.7539 9.53519 32.3616V24.4049H1.70852C0.495192 24.4049 -0.314808 23.1899 0.225192 22.1099L11.8252 1.06494C11.9788 0.787812 12.2038 0.556846 12.4768 0.396025C12.7498 0.235204 13.0608 0.150391 13.3777 0.150391C13.6945 0.150391 14.0056 0.235204 14.2786 0.396025C14.5516 0.556846 14.7766 0.787812 14.9302 1.06494L19.7852 10.3733L13.3102 22.1099ZM39.8852 22.1099L28.2852 1.06494C28.1315 0.788215 27.9065 0.557632 27.6337 0.397091C27.3609 0.23655 27.0501 0.151892 26.7335 0.151892C26.417 0.151892 26.1062 0.23655 25.8333 0.397091C25.5605 0.557632 25.3356 0.788215 25.1819 1.06494L20.1902 10.3749L26.6652 22.1083C26.8002 22.3816 26.8002 22.6516 26.8002 22.9199C26.6669 23.7816 25.9185 24.4149 25.0469 24.4033H22.8869V32.3633C22.8952 33.1799 23.5535 33.8416 24.3702 33.8466H29.2269C29.6195 33.8431 29.9951 33.6859 30.2731 33.4085C30.551 33.1312 30.7092 32.7559 30.7135 32.3633V24.4049H38.4002C39.6169 24.4049 40.4235 23.1899 39.8835 22.1099H39.8852Z" fill="url(#paint0_linear_558_6364)"/>
<defs>
<linearGradient id="paint0_linear_558_6364" x1="20.0545" y1="0.150391" x2="20.0545" y2="33.8466" gradientUnits="userSpaceOnUse">
<stop stop-color="white"/>
<stop offset="1" stop-color="white" stop-opacity="0.35"/>
</linearGradient>
</defs>
</svg>
