<svg width="38" height="28" viewBox="0 0 38 28" fill="none" xmlns="http://www.w3.org/2000/svg">
<path d="M31.5888 2.36479C31.5786 2.34499 31.5617 2.32949 31.5411 2.32104C29.1584 1.22783 26.644 0.448282 24.0607 0.0019121C24.0372 -0.00245108 24.013 0.000696574 23.9914 0.0109074C23.9698 0.0211182 23.952 0.0378723 23.9405 0.0587871C23.5981 0.680218 23.2873 1.31853 23.0093 1.97129C20.2247 1.54859 17.3922 1.54859 14.6077 1.97129C14.3278 1.31687 14.012 0.678401 13.6617 0.0587871C13.6497 0.0383269 13.6318 0.0219586 13.6104 0.0118141C13.5889 0.00166961 13.5649 -0.00178091 13.5415 0.0019121C10.958 0.447345 8.44336 1.22695 6.06097 2.3211C6.04057 2.32975 6.02337 2.34451 6.01172 2.36335C1.24741 9.47822 -0.0577196 16.4182 0.58253 23.2722C0.584332 23.289 0.589492 23.3052 0.597706 23.32C0.60592 23.3347 0.617019 23.3477 0.630343 23.3581C3.40456 25.4122 6.50755 26.9801 9.80691 27.9949C9.83014 28.0019 9.85495 28.0016 9.878 27.994C9.90105 27.9865 9.92124 27.972 9.93584 27.9527C10.6445 26.9885 11.2724 25.9675 11.8132 24.9C11.8206 24.8854 11.8248 24.8693 11.8256 24.8529C11.8264 24.8365 11.8237 24.8201 11.8176 24.8049C11.8116 24.7896 11.8024 24.7757 11.7907 24.7643C11.7789 24.7528 11.7649 24.7439 11.7495 24.7383C10.7593 24.3594 9.80074 23.9027 8.88272 23.3725C8.86604 23.3627 8.85204 23.3489 8.84194 23.3324C8.83184 23.3159 8.82596 23.2972 8.82482 23.2779C8.82367 23.2586 8.8273 23.2393 8.83539 23.2217C8.84347 23.2041 8.85575 23.1888 8.87116 23.1771C9.06378 23.0328 9.25653 22.8827 9.44047 22.731C9.45681 22.7176 9.47658 22.7089 9.49756 22.7061C9.51855 22.7033 9.5399 22.7064 9.55922 22.715C15.5735 25.4598 22.0848 25.4598 28.028 22.715C28.0473 22.7058 28.0689 22.7023 28.0902 22.7049C28.1115 22.7075 28.1316 22.716 28.1482 22.7296C28.3322 22.8812 28.5249 23.0328 28.719 23.1771C28.7345 23.1887 28.7468 23.2039 28.7551 23.2214C28.7633 23.2389 28.767 23.2582 28.766 23.2775C28.765 23.2968 28.7593 23.3156 28.7493 23.3321C28.7393 23.3487 28.7254 23.3626 28.7088 23.3725C27.7929 23.9072 26.8335 24.3636 25.8407 24.7368C25.8253 24.7427 25.8113 24.7518 25.7996 24.7634C25.7879 24.7751 25.7789 24.7891 25.773 24.8045C25.7671 24.8199 25.7645 24.8363 25.7654 24.8528C25.7663 24.8693 25.7707 24.8854 25.7782 24.9C26.3281 25.9615 26.955 26.9812 27.6541 27.951C27.6683 27.9709 27.6884 27.9858 27.7115 27.9936C27.7346 28.0015 27.7597 28.0019 27.783 27.9947C31.0883 26.9834 34.1967 25.4153 36.9744 23.3581C36.9879 23.3482 36.9992 23.3356 37.0074 23.321C37.0157 23.3064 37.0207 23.2903 37.0222 23.2736C37.7887 15.3497 35.739 8.4666 31.5888 2.36479ZM12.7113 19.0988C10.9006 19.0988 9.40859 17.4371 9.40859 15.3963C9.40859 13.3556 10.8717 11.6938 12.7113 11.6938C14.5654 11.6938 16.043 13.37 16.014 15.3962C16.014 17.4371 14.5509 19.0988 12.7113 19.0988ZM24.9226 19.0988C23.1119 19.0988 21.6199 17.4371 21.6199 15.3963C21.6199 13.3556 23.083 11.6938 24.9226 11.6938C26.7768 11.6938 28.2543 13.37 28.2253 15.3962C28.2253 17.4371 26.7768 19.0988 24.9226 19.0988Z" fill="url(#paint0_linear_558_6371)"/>
<defs>
<linearGradient id="paint0_linear_558_6371" x1="18.8056" y1="0" x2="18.8056" y2="27.9999" gradientUnits="userSpaceOnUse">
<stop stop-color="#00FFE5"/>
<stop offset="1" stop-color="#00FFE5" stop-opacity="0.35"/>
</linearGradient>
</defs>
</svg>
