<svg width="41" height="40" viewBox="0 0 41 40" fill="none" xmlns="http://www.w3.org/2000/svg">
<g clip-path="url(#clip0_558_6365)">
<path d="M15.7234 20C15.1733 20.0007 14.6459 20.2195 14.2569 20.6085C13.8679 20.9975 13.6491 21.5249 13.6484 22.075C13.6484 23.2225 14.5784 24.175 15.7234 24.1525C16.2616 24.1338 16.7715 23.9069 17.1457 23.5196C17.5198 23.1322 17.7289 22.6148 17.7289 22.0762C17.7289 21.5377 17.5198 21.0203 17.1457 20.6329C16.7715 20.2456 16.2616 20.0187 15.7234 20ZM20.3309 29.1175C21.1184 29.1175 23.8384 29.0225 25.2709 27.59C25.3638 27.4842 25.4149 27.3482 25.4149 27.2075C25.4149 27.0668 25.3638 26.9308 25.2709 26.825C25.2213 26.7737 25.1618 26.733 25.0961 26.7052C25.0304 26.6773 24.9598 26.663 24.8884 26.663C24.8171 26.663 24.7464 26.6773 24.6807 26.7052C24.615 26.733 24.5556 26.7737 24.5059 26.825C23.6234 27.7325 21.6909 28.0425 20.3309 28.0425C18.9684 28.0425 17.0609 27.7325 16.1534 26.825C16.1038 26.7737 16.0443 26.733 15.9786 26.7052C15.9129 26.6773 15.8423 26.663 15.7709 26.663C15.6996 26.663 15.6289 26.6773 15.5632 26.7052C15.4975 26.733 15.4381 26.7737 15.3884 26.825C15.3372 26.8746 15.2964 26.9341 15.2686 26.9998C15.2408 27.0655 15.2264 27.1361 15.2264 27.2075C15.2264 27.2789 15.2408 27.3495 15.2686 27.4152C15.2964 27.4809 15.3372 27.5404 15.3884 27.59C16.7984 28.9975 19.5184 29.115 20.3309 29.115V29.1175ZM22.8109 22.1C22.8109 23.245 23.7434 24.175 24.8884 24.175C26.0334 24.175 26.9634 23.2225 26.9634 22.1C26.9373 21.5673 26.7072 21.0651 26.321 20.6973C25.9347 20.3295 25.4218 20.1244 24.8884 20.1244C24.3551 20.1244 23.8422 20.3295 23.4559 20.6973C23.0696 21.0651 22.8396 21.5673 22.8134 22.1H22.8109Z" fill="url(#paint0_linear_558_6365)"/>
<path d="M40.3057 20C40.3057 25.3043 38.1985 30.3914 34.4478 34.1421C30.6971 37.8929 25.61 40 20.3057 40C15.0013 40 9.91426 37.8929 6.16353 34.1421C2.4128 30.3914 0.305664 25.3043 0.305664 20C0.305664 14.6957 2.4128 9.60859 6.16353 5.85786C9.91426 2.10714 15.0013 0 20.3057 0C25.61 0 30.6971 2.10714 34.4478 5.85786C38.1985 9.60859 40.3057 14.6957 40.3057 20ZM30.7357 17.0875C29.9482 17.0875 29.2307 17.3975 28.7057 17.9C26.7032 16.4675 23.9557 15.5375 20.9032 15.4175L22.2382 9.165L26.5832 10.095C26.6022 10.5007 26.74 10.8919 26.9793 11.22C27.2186 11.5482 27.5489 11.7989 27.9293 11.9411C28.3098 12.0834 28.7236 12.1108 29.1195 12.0201C29.5153 11.9293 29.8759 11.7244 30.1564 11.4307C30.4369 11.137 30.6251 10.7674 30.6976 10.3678C30.77 9.96816 30.7236 9.55605 30.5641 9.18254C30.4046 8.80903 30.139 8.49054 29.8002 8.26656C29.4614 8.04258 29.0643 7.92295 28.6582 7.9225C28.2697 7.92386 27.8894 8.03424 27.5606 8.24108C27.2318 8.44792 26.9676 8.74292 26.7982 9.0925L21.9532 8.0675C21.8879 8.05345 21.8206 8.0524 21.7549 8.06441C21.6893 8.07642 21.6267 8.10126 21.5707 8.1375C21.5123 8.17394 21.4627 8.2229 21.4255 8.28083C21.3883 8.33876 21.3645 8.40423 21.3557 8.4725L19.8757 15.4425C16.7757 15.5375 13.9807 16.4675 11.9507 17.9225C11.4257 17.4225 10.7107 17.1125 9.92566 17.1125C9.25993 17.1115 8.61402 17.339 8.09586 17.757C7.5777 18.175 7.21868 18.7582 7.07879 19.409C6.93889 20.0599 7.02661 20.7391 7.32726 21.3331C7.62792 21.927 8.12331 22.3999 8.73066 22.6725C8.68066 22.96 8.65816 23.2475 8.65816 23.555C8.65816 28.0425 13.8857 31.695 20.3307 31.695C26.7732 31.695 32.0007 28.0675 32.0007 23.555C32.0007 23.27 31.9757 22.96 31.9282 22.6725C32.9307 22.22 33.6482 21.1925 33.6482 20C33.6482 18.375 32.3357 17.0875 30.7357 17.0875Z" fill="url(#paint1_linear_558_6365)"/>
</g>
<defs>
<linearGradient id="paint0_linear_558_6365" x1="20.3059" y1="20" x2="20.3059" y2="29.1175" gradientUnits="userSpaceOnUse">
<stop stop-color="white"/>
<stop offset="1" stop-color="white" stop-opacity="0.35"/>
</linearGradient>
<linearGradient id="paint1_linear_558_6365" x1="20.3057" y1="0" x2="20.3057" y2="40" gradientUnits="userSpaceOnUse">
<stop stop-color="white"/>
<stop offset="1" stop-color="white" stop-opacity="0.35"/>
</linearGradient>
<clipPath id="clip0_558_6365">
<rect width="40" height="40" fill="white" transform="translate(0.305664)"/>
</clipPath>
</defs>
</svg>
