<svg width="272" height="55" viewBox="0 0 272 55" fill="none" xmlns="http://www.w3.org/2000/svg">
<path d="M28.6727 31.5486C28.3215 32.1337 27.9741 32.7207 27.618 33.3029C26.2401 35.557 24.805 37.7723 23.1244 39.8177C21.9231 41.28 20.618 42.6346 19.0306 43.6913C17.4848 44.7198 15.7935 45.303 13.9373 45.4457C12.0645 45.5893 10.2393 45.4175 8.47333 44.7645C6.06206 43.8727 4.24269 42.2707 2.93371 40.0768C1.6878 37.9877 1.05417 35.7006 0.760161 33.3039C0.588412 31.9066 0.51952 30.5025 0.573859 29.0975C0.688358 26.1225 1.05223 23.1814 1.78192 20.2869C2.47182 17.5486 3.41984 14.9083 4.70747 12.3961C6.02907 9.81602 7.64952 7.44259 9.74932 5.42721C11.9782 3.28859 14.5331 1.72151 17.6197 1.15774C21.536 0.443577 24.9932 1.47213 28.0595 3.94551C30.3805 5.81825 32.2533 8.1092 34.1027 10.4234C37.0768 14.1456 39.6851 18.1162 42.1778 22.1693C44.201 25.4597 46.2086 28.7618 48.3763 31.9609C49.4534 33.5504 50.5654 35.1165 51.9442 36.4701C53.0349 37.5413 54.3157 38.172 55.8566 38.1992C57.7371 38.2322 59.115 37.5947 60.0203 35.5279C60.5666 34.28 60.8073 32.9517 60.9771 31.6107C61.1954 29.8854 61.2973 28.1524 61.2546 26.4136C61.1585 22.474 60.554 18.6131 59.4468 14.8317C58.7453 12.434 57.8526 10.11 56.6639 7.90834C55.7043 6.12972 54.5932 4.45881 53.0979 3.07318C51.951 2.01066 50.6653 1.21693 49.0691 1.03839C49.0294 1.03354 48.9915 1.01219 48.9051 0.982111C49.0856 0.885077 49.2292 0.911277 49.3709 0.924861C52.4575 1.23828 55.1609 2.44828 57.5295 4.42873C59.541 6.11129 61.1527 8.13152 62.5014 10.3701C64.1966 13.1821 65.3872 16.2018 66.2169 19.3709C66.8961 21.9646 67.2803 24.6019 67.4725 27.2781C67.6821 30.1949 67.553 33.0788 66.8903 35.9267C66.3148 38.403 65.3057 40.6794 63.5019 42.523C62.0192 44.0387 60.2086 44.9653 58.1117 45.3079C55.7625 45.6912 53.4618 45.5291 51.2466 44.6112C49.3146 43.8106 47.7602 42.4929 46.3755 40.9618C43.9235 38.2506 42.0022 35.165 40.111 32.059C38.8981 30.0669 37.8725 27.969 36.6887 25.9604C34.7024 22.5904 32.457 19.3893 30.2175 16.1843C29.1026 14.5891 27.9353 13.0404 26.5671 11.6509C25.4609 10.5282 24.2694 9.51133 22.7954 8.90488C20.1435 7.81519 17.6769 8.14899 15.4316 9.95672C13.6258 11.4103 12.3372 13.2694 11.2747 15.3013C9.49509 18.7062 8.49759 22.3508 8.00175 26.1419C7.77567 27.8661 7.6796 29.603 7.78731 31.339C7.92413 33.5445 8.4811 35.6259 9.86479 37.4084C11.297 39.253 13.1921 39.9963 15.5053 39.7517C19.7457 39.3035 23.2748 37.4229 26.2479 34.4295C27.0212 33.6513 27.7208 32.8032 28.3302 31.8862C28.4175 31.7552 28.5078 31.6262 28.5961 31.4952C28.6203 31.5165 28.6465 31.533 28.6727 31.5486Z" fill="#0175EF"/>
<path d="M35.3538 39.6716C36.263 39.724 38.0145 39.7288 39.7164 40.1975C40.0483 40.2887 40.3656 40.4187 40.6674 40.5827C42.1986 41.4153 42.7381 42.7999 42.2189 44.5378C41.7182 46.2136 40.7304 47.5837 39.5369 48.8237C38.8548 49.5321 38.1222 50.188 37.3644 50.8129C36.7938 51.2826 36.328 51.8405 35.9137 52.446C35.5518 52.9739 35.1898 53.5017 34.7678 53.984C34.2244 54.605 33.6014 54.6448 32.9814 54.0975C32.3497 53.5396 31.8606 52.8623 31.3929 52.1724C30.6914 51.137 29.8491 50.2812 28.7488 49.6398C27.138 48.7005 26.42 47.1189 26.0066 45.3849C25.7825 44.4437 25.7902 43.485 25.9649 42.5273C26.0464 42.0799 26.2686 41.7491 26.6305 41.4939C27.3437 40.9903 28.1588 40.7253 28.9875 40.5031C30.801 40.018 32.6233 39.5881 35.3538 39.6716ZM30.5536 46.1544C30.5555 46.9442 31.0029 47.3954 31.7791 47.3915C32.5282 47.3877 32.9969 46.9326 32.995 46.2126C32.993 45.4819 32.4846 44.9395 31.8034 44.9424C31.0126 44.9453 30.5517 45.3926 30.5536 46.1544ZM36.5745 47.5371C37.343 47.5371 37.8 47.1082 37.803 46.3843C37.8059 45.6595 37.2945 45.0948 36.6308 45.0918C35.8594 45.0889 35.3626 45.5595 35.3577 46.298C35.3529 47.0849 35.7973 47.5381 36.5745 47.5371Z" fill="black"/>
<path d="M52.1645 24.6569C49.7833 24.653 47.8048 22.658 47.8155 20.2709C47.8261 17.9101 49.825 15.9209 52.182 15.9268C54.5632 15.9326 56.5514 17.9276 56.5456 20.3059C56.5407 22.6968 54.5632 24.6607 52.1645 24.6569ZM51.0457 18.2973C51.0399 17.9266 50.8148 17.7112 50.4383 17.7141C50.0511 17.7161 49.8202 17.9489 49.8241 18.3322C49.8279 18.7116 50.0695 18.9445 50.4538 18.9377C50.8303 18.9309 51.0525 18.6903 51.0457 18.2973Z" fill="black"/>
<path d="M22.3298 20.2942C22.3259 22.6773 20.3532 24.6578 17.9915 24.65C15.617 24.6422 13.6211 22.6696 13.6094 20.3194C13.5978 17.9149 15.5831 15.917 17.9827 15.9189C20.3785 15.9199 22.3337 17.8887 22.3298 20.2942ZM16.8668 18.3128C16.8717 17.9625 16.5981 17.6791 16.2478 17.6723C15.8994 17.6655 15.6161 17.9421 15.6103 18.2934C15.6044 18.6485 15.8713 18.9231 16.2284 18.9289C16.5835 18.9338 16.861 18.666 16.8668 18.3128Z" fill="black"/>
<path d="M102.454 12.1787H109.982V37.2114H105.109V20.2784C105.109 19.7929 105.116 19.111 105.126 18.2328C105.137 17.3547 105.144 16.6797 105.144 16.2045L100.398 37.2114H95.3152L90.6041 16.2045C90.6041 16.6797 90.611 17.3581 90.6213 18.2328C90.6316 19.111 90.6385 19.7929 90.6385 20.2784V37.2114H85.7656V12.1787H93.3763L97.9324 31.8632L102.454 12.1787Z" fill="black"/>
<path d="M102.454 12.1787H109.982V37.2114H105.109V20.2784C105.109 19.7929 105.116 19.111 105.126 18.2328C105.137 17.3547 105.144 16.6797 105.144 16.2045L100.398 37.2114H95.3152L90.6041 16.2045C90.6041 16.6797 90.611 17.3581 90.6213 18.2328C90.6316 19.111 90.6385 19.7929 90.6385 20.2784V37.2114H85.7656V12.1787H93.3763L97.9324 31.8632L102.454 12.1787Z" stroke="black" stroke-miterlimit="10"/>
<path d="M132.993 16.6108H120.017V21.928H131.905V26.274H120.017V32.7104H133.602V37.2114H114.906V12.1787H132.993V16.6108Z" fill="black"/>
<path d="M132.993 16.6108H120.017V21.928H131.905V26.274H120.017V32.7104H133.602V37.2114H114.906V12.1787H132.993V16.6108Z" stroke="black" stroke-miterlimit="10"/>
<path d="M156.07 12.1787V16.6108H148.583V37.2114H143.318V16.6108H135.793V12.1787H156.07Z" fill="black"/>
<path d="M156.07 12.1787V16.6108H148.583V37.2114H143.318V16.6108H135.793V12.1787H156.07Z" stroke="black" stroke-miterlimit="10"/>
<path d="M166.218 12.1787H172.138L180.995 37.2114H175.324L173.671 32.0664H164.448L162.75 37.2114H157.278L166.218 12.1787ZM165.874 27.7514H172.286L169.125 17.9022L165.874 27.7514Z" fill="black"/>
<path d="M166.218 12.1787H172.138L180.995 37.2114H175.324L173.671 32.0664H164.448L162.75 37.2114H157.278L166.218 12.1787ZM165.874 27.7514H172.286L169.125 17.9022L165.874 27.7514Z" stroke="black" stroke-miterlimit="10"/>
<path d="M200.915 26.3778C199.448 27.6003 197.358 28.2133 194.637 28.2133H189.423V37.2153H184.227V12.1826H194.975C197.454 12.1826 199.427 12.8266 200.901 14.118C202.375 15.4094 203.112 17.4068 203.112 20.1136C203.112 23.0649 202.379 25.1553 200.915 26.3778ZM196.92 17.3586C196.259 16.8041 195.329 16.5252 194.138 16.5252H189.423V23.8948H194.138C195.333 23.8948 196.259 23.5952 196.92 22.996C197.581 22.3968 197.915 21.4429 197.915 20.1446C197.915 18.8428 197.585 17.913 196.92 17.3586Z" fill="black"/>
<path d="M200.915 26.3778C199.448 27.6003 197.358 28.2133 194.637 28.2133H189.423V37.2153H184.227V12.1826H194.975C197.454 12.1826 199.427 12.8266 200.901 14.118C202.375 15.4094 203.112 17.4068 203.112 20.1136C203.112 23.0649 202.379 25.1553 200.915 26.3778ZM196.92 17.3586C196.259 16.8041 195.329 16.5252 194.138 16.5252H189.423V23.8948H194.138C195.333 23.8948 196.259 23.5952 196.92 22.996C197.581 22.3968 197.915 21.4429 197.915 20.1446C197.915 18.8428 197.585 17.913 196.92 17.3586Z" stroke="black" stroke-miterlimit="10"/>
<path d="M225.479 16.6108H212.503V21.928H224.39V26.274H212.503V32.7104H226.088V37.2114H207.389V12.1787H225.479V16.6108Z" fill="black"/>
<path d="M225.479 16.6108H212.503V21.928H224.39V26.274H212.503V32.7104H226.088V37.2114H207.389V12.1787H225.479V16.6108Z" stroke="black" stroke-miterlimit="10"/>
<path d="M248.556 12.1787V16.6108H241.066V37.2114H235.804V16.6108H228.279V12.1787H248.556Z" fill="black"/>
<path d="M248.556 12.1787V16.6108H241.066V37.2114H235.804V16.6108H228.279V12.1787H248.556Z" stroke="black" stroke-miterlimit="10"/>
<path d="M255.315 29.4837C255.477 30.627 255.794 31.481 256.269 32.0493C257.137 33.0789 258.621 33.5955 260.725 33.5955C261.986 33.5955 263.009 33.4578 263.794 33.1891C265.285 32.6691 266.029 31.7014 266.029 30.2861C266.029 29.4596 265.664 28.819 264.934 28.3679C264.204 27.9271 263.043 27.5345 261.459 27.197L258.749 26.6012C256.083 26.0123 254.255 25.3718 253.259 24.6831C251.572 23.5294 250.728 21.7214 250.728 19.266C250.728 17.0241 251.555 15.1611 253.204 13.6768C254.854 12.1926 257.278 11.4521 260.477 11.4521C263.15 11.4521 265.426 12.1512 267.31 13.5494C269.194 14.9476 270.182 16.9759 270.275 19.638H265.247C265.154 18.133 264.479 17.062 263.226 16.4284C262.389 16.0082 261.352 15.8016 260.109 15.8016C258.728 15.8016 257.626 16.0737 256.8 16.6178C255.976 17.1619 255.563 17.9195 255.563 18.8941C255.563 19.7895 255.97 20.4576 256.782 20.8984C257.306 21.1911 258.411 21.5389 260.109 21.9349L264.503 22.9715C266.428 23.4261 267.871 24.0322 268.832 24.7898C270.323 25.9676 271.07 27.6722 271.07 29.9004C271.07 32.187 270.185 34.088 268.419 35.5963C266.652 37.1081 264.152 37.8623 260.925 37.8623C257.629 37.8623 255.036 37.1185 253.149 35.6308C251.262 34.1431 250.318 32.094 250.318 29.4905H255.315V29.4837Z" fill="black"/>
<path d="M255.315 29.4837C255.477 30.627 255.794 31.481 256.269 32.0493C257.137 33.0789 258.621 33.5955 260.725 33.5955C261.986 33.5955 263.009 33.4578 263.794 33.1891C265.285 32.6691 266.029 31.7014 266.029 30.2861C266.029 29.4596 265.664 28.819 264.934 28.3679C264.204 27.9271 263.043 27.5345 261.459 27.197L258.749 26.6012C256.083 26.0123 254.255 25.3718 253.259 24.6831C251.572 23.5294 250.728 21.7214 250.728 19.266C250.728 17.0241 251.555 15.1611 253.204 13.6768C254.854 12.1926 257.278 11.4521 260.477 11.4521C263.15 11.4521 265.426 12.1512 267.31 13.5494C269.194 14.9476 270.182 16.9759 270.275 19.638H265.247C265.154 18.133 264.479 17.062 263.226 16.4284C262.389 16.0082 261.352 15.8016 260.109 15.8016C258.728 15.8016 257.626 16.0737 256.8 16.6178C255.976 17.1619 255.563 17.9195 255.563 18.8941C255.563 19.7895 255.97 20.4576 256.782 20.8984C257.306 21.1911 258.411 21.5389 260.109 21.9349L264.503 22.9715C266.428 23.4261 267.871 24.0322 268.832 24.7898C270.323 25.9676 271.07 27.6722 271.07 29.9004C271.07 32.187 270.185 34.088 268.419 35.5963C266.652 37.1081 264.152 37.8623 260.925 37.8623C257.629 37.8623 255.036 37.1185 253.149 35.6308C251.262 34.1431 250.318 32.094 250.318 29.4905H255.315V29.4837Z" stroke="black" stroke-miterlimit="10"/>
</svg>
