<svg width="272" height="54" viewBox="0 0 272 54" fill="none" xmlns="http://www.w3.org/2000/svg">
<path d="M28.2284 30.8532C27.8771 31.4384 27.5298 32.0254 27.1737 32.6076C25.7958 34.8617 24.3607 37.077 22.68 39.1224C21.4788 40.5847 20.1737 41.9393 18.5862 42.996C17.0405 44.0245 15.3492 44.6077 13.4929 44.7503C11.6202 44.894 9.795 44.7222 8.029 44.0692C5.61772 43.1774 3.79835 41.5754 2.48937 39.3815C1.24347 37.2924 0.609836 35.0053 0.315825 32.6086C0.144076 31.2113 0.0751845 29.8072 0.129523 28.4022C0.244022 25.4271 0.607892 22.4861 1.33758 19.5916C2.02749 16.8533 2.97551 14.213 4.26314 11.7008C5.58473 9.12071 7.20519 6.74727 9.30499 4.73189C11.5338 2.59328 14.0887 1.02619 17.1754 0.462429C21.0916 -0.251735 24.5489 0.776817 27.6152 3.25019C29.9362 5.12294 31.8089 7.41389 33.6584 9.72813C36.6325 13.4503 39.2407 17.4209 41.7335 21.474C43.7566 24.7644 45.7643 28.0664 47.932 31.2656C49.0091 32.855 50.1211 34.4212 51.4999 35.7748C52.5906 36.846 53.8714 37.4767 55.4123 37.5039C57.2928 37.5369 58.6707 36.8994 59.576 34.8326C60.1223 33.5847 60.3629 32.2563 60.5327 30.9153C60.751 29.1901 60.8529 27.4571 60.8102 25.7182C60.7142 21.7787 60.1097 17.9177 59.0025 14.1364C58.301 11.7387 57.4082 9.41472 56.2196 7.21303C55.2599 5.43441 54.1489 3.7635 52.6536 2.37786C51.5067 1.31535 50.221 0.521619 48.6248 0.343078C48.585 0.338226 48.5472 0.316878 48.4608 0.286798C48.6413 0.189765 48.7849 0.215964 48.9266 0.229549C52.0132 0.542966 54.7165 1.75297 57.0851 3.73342C59.0966 5.41598 60.7084 7.43621 62.0571 9.67477C63.7523 12.4868 64.9429 15.5065 65.7725 18.6756C66.4518 21.2693 66.836 23.9066 67.0281 26.5828C67.2377 29.4996 67.1087 32.3835 66.4459 35.2314C65.8705 37.7077 64.8614 39.9841 63.0575 41.8277C61.5749 43.3434 59.7642 44.27 57.6673 44.6126C55.3182 44.9958 53.0175 44.8338 50.8022 43.9159C48.8703 43.1153 47.3158 41.7976 45.9312 40.2664C43.4791 37.5553 41.5579 34.4697 39.6667 31.3636C38.4538 29.3715 37.4281 27.2737 36.2443 25.2651C34.2581 21.8951 32.0127 18.694 29.7732 15.489C28.6583 13.8938 27.491 12.3451 26.1228 10.9556C25.0166 9.83293 23.825 8.81602 22.3511 8.20956C19.6992 7.11988 17.2326 7.45367 14.9873 9.2614C13.1815 10.715 11.8929 12.5741 10.8303 14.606C9.05076 18.0109 8.05326 21.6555 7.55742 25.4465C7.33133 27.1708 7.23527 28.9077 7.34297 30.6437C7.47979 32.8492 8.03676 34.9306 9.42046 36.7131C10.8527 38.5577 12.7477 39.301 15.061 39.0564C19.3014 38.6081 22.8304 36.7276 25.8035 33.7342C26.5769 32.956 27.2765 32.1079 27.8859 31.1909C27.9732 31.0599 28.0635 30.9309 28.1518 30.7999C28.176 30.8212 28.2022 30.8377 28.2284 30.8532Z" fill="#0175EF"/>
<path d="M34.9095 38.9763C35.8187 39.0287 37.5702 39.0335 39.2721 39.5022C39.604 39.5934 39.9213 39.7234 40.223 39.8874C41.7542 40.7199 42.2937 42.1046 41.7746 43.8425C41.2739 45.5182 40.2861 46.8883 39.0926 48.1284C38.4105 48.8368 37.6779 49.4927 36.92 50.1176C36.3495 50.5873 35.8837 51.1452 35.4694 51.7507C35.1074 52.2785 34.7455 52.8064 34.3234 53.2887C33.78 53.9097 33.1571 53.9495 32.537 53.4022C31.9054 52.8443 31.4163 52.167 30.9486 51.4771C30.2471 50.4417 29.4048 49.5859 28.3044 48.9445C26.6937 48.0052 25.9756 46.4236 25.5623 44.6896C25.3381 43.7484 25.3459 42.7897 25.5206 41.8319C25.6021 41.3846 25.8243 41.0537 26.1862 40.7985C26.8994 40.2949 27.7145 40.03 28.5431 39.8078C30.3567 39.3227 32.179 38.8928 34.9095 38.9763ZM30.1093 45.459C30.1112 46.2489 30.5585 46.7001 31.3348 46.6962C32.0839 46.6923 32.5526 46.2373 32.5506 45.5173C32.5487 44.7866 32.0402 44.2442 31.3591 44.2471C30.5682 44.25 30.1073 44.6973 30.1093 45.459ZM36.1302 46.8418C36.8987 46.8418 37.3557 46.4129 37.3586 45.689C37.3615 44.9642 36.8502 44.3994 36.1865 44.3965C35.415 44.3936 34.9182 44.8642 34.9134 45.6027C34.9085 46.3896 35.3529 46.8427 36.1302 46.8418Z" fill="white"/>
<path d="M51.7202 23.9615C49.339 23.9577 47.3605 21.9627 47.3711 19.5756C47.3818 17.2148 49.3807 15.2256 51.7376 15.2315C54.1188 15.2373 56.107 17.2323 56.1012 19.6106C56.0964 22.0015 54.1188 23.9654 51.7202 23.9615ZM50.6014 17.602C50.5956 17.2313 50.3704 17.0159 49.9939 17.0188C49.6068 17.0208 49.3758 17.2536 49.3797 17.6369C49.3836 18.0163 49.6252 18.2492 50.0095 18.2424C50.386 18.2356 50.6082 17.995 50.6014 17.602Z" fill="white"/>
<path d="M21.8855 19.5989C21.8816 21.982 19.9089 23.9625 17.5471 23.9547C15.1727 23.9469 13.1767 21.9742 13.1651 19.6241C13.1534 17.2196 15.1387 15.2217 17.5384 15.2236C19.9341 15.2246 21.8893 17.1934 21.8855 19.5989ZM16.4225 17.6174C16.4273 17.2672 16.1537 16.9838 15.8034 16.977C15.4551 16.9702 15.1717 17.2468 15.1659 17.598C15.1601 17.9532 15.4269 18.2278 15.784 18.2336C16.1392 18.2385 16.4167 17.9706 16.4225 17.6174Z" fill="white"/>
<path d="M102.01 11.4834H109.538V36.5161H104.665V19.5831C104.665 19.0976 104.672 18.4157 104.682 17.5375C104.692 16.6594 104.699 15.9844 104.699 15.5092L99.9538 36.5161H94.8708L90.1598 15.5092C90.1598 15.9844 90.1666 16.6628 90.177 17.5375C90.1873 18.4157 90.1942 19.0976 90.1942 19.5831V36.5161H85.3213V11.4834H92.932L97.4881 31.1679L102.01 11.4834Z" fill="black"/>
<path d="M102.01 11.4834H109.538V36.5161H104.665V19.5831C104.665 19.0976 104.672 18.4157 104.682 17.5375C104.692 16.6594 104.699 15.9844 104.699 15.5092L99.9538 36.5161H94.8708L90.1598 15.5092C90.1598 15.9844 90.1666 16.6628 90.177 17.5375C90.1873 18.4157 90.1942 19.0976 90.1942 19.5831V36.5161H85.3213V11.4834H92.932L97.4881 31.1679L102.01 11.4834Z" fill="white" stroke="white" stroke-miterlimit="10"/>
<path d="M132.549 15.9155H119.572V21.2327H131.46V25.5787H119.572V32.0151H133.158V36.5161H114.462V11.4834H132.549V15.9155Z" fill="white"/>
<path d="M132.549 15.9155H119.572V21.2327H131.46V25.5787H119.572V32.0151H133.158V36.5161H114.462V11.4834H132.549V15.9155Z" stroke="white" stroke-miterlimit="10"/>
<path d="M155.625 11.4834V15.9155H148.139V36.5161H142.873V15.9155H135.349V11.4834H155.625Z" fill="black"/>
<path d="M155.625 11.4834V15.9155H148.139V36.5161H142.873V15.9155H135.349V11.4834H155.625Z" fill="white" stroke="white" stroke-miterlimit="10"/>
<path d="M165.774 11.4834H171.694L180.551 36.5161H174.879L173.226 31.3711H164.004L162.306 36.5161H156.834L165.774 11.4834ZM165.43 27.0561H171.842L168.68 17.2069L165.43 27.0561Z" fill="white"/>
<path d="M165.774 11.4834H171.694L180.551 36.5161H174.879L173.226 31.3711H164.004L162.306 36.5161H156.834L165.774 11.4834ZM165.43 27.0561H171.842L168.68 17.2069L165.43 27.0561Z" stroke="white" stroke-miterlimit="10"/>
<path d="M200.471 25.6825C199.004 26.905 196.913 27.518 194.193 27.518H188.979V36.52H183.782V11.4873H194.53C197.01 11.4873 198.983 12.1313 200.457 13.4227C201.931 14.7141 202.668 16.7115 202.668 19.4183C202.668 22.3696 201.934 24.4599 200.471 25.6825ZM196.476 16.6633C195.815 16.1088 194.885 15.8299 193.693 15.8299H188.979V23.1995H193.693C194.888 23.1995 195.815 22.8999 196.476 22.3007C197.137 21.7015 197.471 20.7476 197.471 19.4493C197.471 18.1475 197.141 17.2177 196.476 16.6633Z" fill="black"/>
<path d="M200.471 25.6825C199.004 26.905 196.913 27.518 194.193 27.518H188.979V36.52H183.782V11.4873H194.53C197.01 11.4873 198.983 12.1313 200.457 13.4227C201.931 14.7141 202.668 16.7115 202.668 19.4183C202.668 22.3696 201.934 24.4599 200.471 25.6825ZM196.476 16.6633C195.815 16.1088 194.885 15.8299 193.693 15.8299H188.979V23.1995H193.693C194.888 23.1995 195.815 22.8999 196.476 22.3007C197.137 21.7015 197.471 20.7476 197.471 19.4493C197.471 18.1475 197.141 17.2177 196.476 16.6633Z" fill="white" stroke="white" stroke-miterlimit="10"/>
<path d="M225.034 15.9155H212.058V21.2327H223.946V25.5787H212.058V32.0151H225.644V36.5161H206.944V11.4834H225.034V15.9155Z" fill="white"/>
<path d="M225.034 15.9155H212.058V21.2327H223.946V25.5787H212.058V32.0151H225.644V36.5161H206.944V11.4834H225.034V15.9155Z" stroke="white" stroke-miterlimit="10"/>
<path d="M248.112 11.4834V15.9155H240.622V36.5161H235.36V15.9155H227.835V11.4834H248.112Z" fill="black"/>
<path d="M248.112 11.4834V15.9155H240.622V36.5161H235.36V15.9155H227.835V11.4834H248.112Z" fill="white" stroke="white" stroke-miterlimit="10"/>
<path d="M254.871 28.7883C255.033 29.9317 255.35 30.7857 255.825 31.3539C256.693 32.3836 258.177 32.9002 260.281 32.9002C261.542 32.9002 262.564 32.7624 263.349 32.4938C264.841 31.9738 265.584 31.0061 265.584 29.5907C265.584 28.7642 265.219 28.1237 264.489 27.6726C263.759 27.2318 262.599 26.8392 261.015 26.5017L258.304 25.9059C255.639 25.317 253.81 24.6765 252.815 23.9877C251.128 22.8341 250.284 21.0261 250.284 18.5707C250.284 16.3288 251.11 14.4658 252.76 12.9815C254.409 11.4973 256.834 10.7568 260.033 10.7568C262.705 10.7568 264.982 11.4559 266.866 12.8541C268.749 14.2523 269.738 16.2806 269.831 18.9427H264.803C264.71 17.4377 264.035 16.3667 262.781 15.7331C261.944 15.3129 260.908 15.1063 259.665 15.1063C258.284 15.1063 257.182 15.3784 256.355 15.9225C255.532 16.4666 255.119 17.2242 255.119 18.1988C255.119 19.0942 255.525 19.7623 256.338 20.2031C256.861 20.4958 257.967 20.8436 259.665 21.2396L264.059 22.2762C265.984 22.7308 267.427 23.3369 268.388 24.0945C269.879 25.2723 270.626 26.9769 270.626 29.205C270.626 31.4917 269.741 33.3926 267.974 34.901C266.208 36.4128 263.708 37.167 260.481 37.167C257.185 37.167 254.592 36.4232 252.705 34.9355C250.818 33.4478 249.874 31.3987 249.874 28.7952H254.871V28.7883Z" fill="black"/>
<path d="M254.871 28.7883C255.033 29.9317 255.35 30.7857 255.825 31.3539C256.693 32.3836 258.177 32.9002 260.281 32.9002C261.542 32.9002 262.564 32.7624 263.349 32.4938C264.841 31.9738 265.584 31.0061 265.584 29.5907C265.584 28.7642 265.219 28.1237 264.489 27.6726C263.759 27.2318 262.599 26.8392 261.015 26.5017L258.304 25.9059C255.639 25.317 253.81 24.6765 252.815 23.9877C251.128 22.8341 250.284 21.0261 250.284 18.5707C250.284 16.3288 251.11 14.4658 252.76 12.9815C254.409 11.4973 256.834 10.7568 260.033 10.7568C262.705 10.7568 264.982 11.4559 266.866 12.8541C268.749 14.2523 269.738 16.2806 269.831 18.9427H264.803C264.71 17.4377 264.035 16.3667 262.781 15.7331C261.944 15.3129 260.908 15.1063 259.665 15.1063C258.284 15.1063 257.182 15.3784 256.355 15.9225C255.532 16.4666 255.119 17.2242 255.119 18.1988C255.119 19.0942 255.525 19.7623 256.338 20.2031C256.861 20.4958 257.967 20.8436 259.665 21.2396L264.059 22.2762C265.984 22.7308 267.427 23.3369 268.388 24.0945C269.879 25.2723 270.626 26.9769 270.626 29.205C270.626 31.4917 269.741 33.3926 267.974 34.901C266.208 36.4128 263.708 37.167 260.481 37.167C257.185 37.167 254.592 36.4232 252.705 34.9355C250.818 33.4478 249.874 31.3987 249.874 28.7952H254.871V28.7883Z" fill="white" stroke="white" stroke-miterlimit="10"/>
</svg>
