<svg width="132" height="26" viewBox="0 0 132 26" fill="none" xmlns="http://www.w3.org/2000/svg">
<path d="M13.6466 14.8698C13.4761 15.1538 13.3075 15.4388 13.1347 15.7213C12.4659 16.8153 11.7694 17.8905 10.9537 18.8833C10.3707 19.593 9.73724 20.2504 8.96677 20.7633C8.21655 21.2625 7.39568 21.5456 6.49475 21.6148C5.58582 21.6845 4.69996 21.6011 3.84283 21.2842C2.67252 20.8514 1.78949 20.0738 1.15418 19.009C0.549482 17.9951 0.24195 16.885 0.0992525 15.7218C0.0158944 15.0436 -0.0175423 14.3622 0.00883095 13.6802C0.064403 12.2363 0.241007 10.8088 0.595161 9.404C0.930007 8.07498 1.39013 6.79352 2.01508 5.57423C2.65651 4.32198 3.443 3.17003 4.46213 2.19187C5.54391 1.1539 6.78392 0.393313 8.28201 0.119692C10.1828 -0.226928 11.8608 0.272279 13.349 1.47273C14.4755 2.38166 15.3844 3.49358 16.282 4.61679C17.7255 6.42336 18.9914 8.35048 20.2013 10.3176C21.1832 11.9146 22.1576 13.5173 23.2097 15.07C23.7325 15.8414 24.2722 16.6015 24.9414 17.2585C25.4707 17.7784 26.0924 18.0846 26.8403 18.0977C27.753 18.1138 28.4217 17.8043 28.8611 16.8012C29.1263 16.1956 29.2431 15.5508 29.3255 14.9C29.4314 14.0626 29.4809 13.2215 29.4602 12.3776C29.4135 10.4655 29.1201 8.59161 28.5828 6.75632C28.2423 5.5926 27.809 4.46468 27.2321 3.39609C26.7663 2.53284 26.2271 1.72186 25.5014 1.04935C24.9447 0.533656 24.3207 0.148419 23.546 0.0617642C23.5267 0.0594094 23.5083 0.0490484 23.4664 0.034449C23.554 -0.012646 23.6237 6.98135e-05 23.6924 0.00666311C25.1905 0.15878 26.5026 0.746055 27.6522 1.70726C28.6285 2.52389 29.4107 3.50441 30.0653 4.59089C30.8881 5.9557 31.4659 7.4213 31.8686 8.95942C32.1983 10.2183 32.3848 11.4983 32.478 12.7972C32.5797 14.2129 32.5171 15.6125 32.1954 16.9948C31.9162 18.1966 31.4264 19.3015 30.5509 20.1963C29.8313 20.9319 28.9525 21.3817 27.9348 21.5479C26.7946 21.7339 25.678 21.6553 24.6028 21.2098C23.6651 20.8212 22.9107 20.1817 22.2386 19.4385C21.0485 18.1227 20.116 16.6251 19.1982 15.1176C18.6095 14.1507 18.1117 13.1325 17.5371 12.1576C16.5731 10.522 15.4833 8.96837 14.3964 7.41282C13.8552 6.63858 13.2887 5.88694 12.6246 5.21254C12.0878 4.66765 11.5094 4.1741 10.7941 3.87976C9.50695 3.35088 8.3098 3.51289 7.22002 4.39027C6.34358 5.09575 5.71816 5.99809 5.20247 6.98426C4.33874 8.63682 3.85461 10.4057 3.61395 12.2457C3.50422 13.0826 3.4576 13.9256 3.50987 14.7681C3.57628 15.8386 3.8466 16.8488 4.51818 17.7139C5.2133 18.6092 6.13307 18.9699 7.25581 18.8513C9.31386 18.6337 11.0267 17.721 12.4697 16.2681C12.845 15.8904 13.1846 15.4788 13.4804 15.0337C13.5227 14.9702 13.5665 14.9075 13.6094 14.8439C13.6212 14.8543 13.6339 14.8623 13.6466 14.8698Z" fill="#0175EF"/>
<path d="M16.8892 18.8123C17.3305 18.8377 18.1806 18.8401 19.0066 19.0676C19.1677 19.1118 19.3217 19.1749 19.4682 19.2545C20.2113 19.6586 20.4732 20.3307 20.2212 21.1741C19.9782 21.9875 19.4988 22.6524 18.9195 23.2543C18.5884 23.5981 18.2329 23.9165 17.8651 24.2198C17.5881 24.4477 17.3621 24.7185 17.161 25.0124C16.9853 25.2686 16.8097 25.5248 16.6048 25.7588C16.3411 26.0602 16.0387 26.0795 15.7378 25.8139C15.4312 25.5431 15.1938 25.2144 14.9668 24.8796C14.6263 24.3771 14.2175 23.9617 13.6835 23.6504C12.9017 23.1945 12.5532 22.4269 12.3526 21.5853C12.2438 21.1284 12.2476 20.6631 12.3323 20.1983C12.3719 19.9812 12.4797 19.8206 12.6554 19.6968C13.0016 19.4523 13.3972 19.3238 13.7993 19.2159C14.6795 18.9804 15.564 18.7718 16.8892 18.8123ZM14.5595 21.9587C14.5604 22.3421 14.7775 22.5611 15.1543 22.5592C15.5178 22.5573 15.7453 22.3364 15.7444 21.987C15.7434 21.6324 15.4966 21.3691 15.166 21.3705C14.7822 21.3719 14.5585 21.589 14.5595 21.9587ZM17.4817 22.6298C17.8547 22.6298 18.0765 22.4217 18.0779 22.0703C18.0793 21.7185 17.8311 21.4445 17.509 21.443C17.1346 21.4416 16.8935 21.67 16.8911 22.0284C16.8888 22.4104 17.1045 22.6303 17.4817 22.6298Z" fill="white"/>
<path d="M25.0483 11.525C23.8926 11.5231 22.9323 10.5548 22.9375 9.39626C22.9427 8.25044 23.9129 7.28499 25.0568 7.28782C26.2125 7.29064 27.1775 8.25892 27.1747 9.41321C27.1723 10.5736 26.2125 11.5268 25.0483 11.525ZM24.5053 8.43835C24.5025 8.25845 24.3932 8.1539 24.2105 8.15531C24.0226 8.15625 23.9105 8.26928 23.9124 8.4553C23.9143 8.63944 24.0315 8.75247 24.218 8.74918C24.4008 8.74588 24.5086 8.62908 24.5053 8.43835Z" fill="white"/>
<path d="M10.5681 9.40754C10.5662 10.5642 9.60873 11.5254 8.46244 11.5216C7.31002 11.5179 6.34128 10.5604 6.33563 9.41979C6.32998 8.25277 7.29354 7.28309 8.4582 7.28403C9.62097 7.2845 10.5699 8.24006 10.5681 9.40754ZM7.91661 8.44586C7.91896 8.27585 7.78615 8.13833 7.61614 8.13503C7.44707 8.13174 7.30955 8.26596 7.30673 8.43644C7.3039 8.60881 7.43341 8.74209 7.60672 8.74491C7.77909 8.74727 7.91378 8.61729 7.91661 8.44586Z" fill="white"/>
<path d="M49.4563 5.46878H53.11V17.6184H50.745V9.39997C50.745 9.1643 50.7483 8.83336 50.7533 8.40715C50.7583 7.98093 50.7617 7.65333 50.7617 7.42268L48.4584 17.6184H45.9914L43.7049 7.42268C43.7049 7.65333 43.7083 7.98261 43.7133 8.40715C43.7183 8.83336 43.7216 9.1643 43.7216 9.39997V17.6184H41.3566V5.46878H45.0504L47.2617 15.0226L49.4563 5.46878Z" fill="black"/>
<path d="M49.4563 5.46878H53.11V17.6184H50.745V9.39997C50.745 9.1643 50.7483 8.83336 50.7533 8.40715C50.7583 7.98093 50.7617 7.65333 50.7617 7.42268L48.4584 17.6184H45.9914L43.7049 7.42268C43.7049 7.65333 43.7083 7.98261 43.7133 8.40715C43.7183 8.83336 43.7216 9.1643 43.7216 9.39997V17.6184H41.3566V5.46878H45.0504L47.2617 15.0226L49.4563 5.46878Z" fill="white" stroke="white" stroke-miterlimit="10"/>
<path d="M64.2783 7.61981H57.9803V10.2005H63.7501V12.3098H57.9803V15.4337H64.5741V17.6183H55.4999V5.46869H64.2783V7.61981Z" fill="white"/>
<path d="M64.2783 7.61981H57.9803V10.2005H63.7501V12.3098H57.9803V15.4337H64.5741V17.6183H55.4999V5.46869H64.2783V7.61981Z" stroke="white" stroke-miterlimit="10"/>
<path d="M75.4786 5.46869V7.61981H71.845V17.6183H69.2894V7.61981H65.6373V5.46869H75.4786Z" fill="black"/>
<path d="M75.4786 5.46869V7.61981H71.845V17.6183H69.2894V7.61981H65.6373V5.46869H75.4786Z" fill="white" stroke="white" stroke-miterlimit="10"/>
<path d="M80.4042 5.46869H83.2774L87.5763 17.6183H84.8234L84.0212 15.1212H79.5451L78.7211 17.6183H76.0652L80.4042 5.46869ZM80.2371 13.0269H83.3492L81.8149 8.24659L80.2371 13.0269Z" fill="white"/>
<path d="M80.4042 5.46869H83.2774L87.5763 17.6183H84.8234L84.0212 15.1212H79.5451L78.7211 17.6183H76.0652L80.4042 5.46869ZM80.2371 13.0269H83.3492L81.8149 8.24659L80.2371 13.0269Z" stroke="white" stroke-miterlimit="10"/>
<path d="M97.2442 12.3602C96.5322 12.9536 95.5176 13.2511 94.1972 13.2511H91.6667V17.6202H89.1445V5.47058H94.361C95.5644 5.47058 96.5222 5.78314 97.2375 6.40992C97.9529 7.0367 98.3106 8.00614 98.3106 9.31988C98.3106 10.7523 97.9546 11.7668 97.2442 12.3602ZM95.3054 7.98274C94.9845 7.71364 94.5332 7.57824 93.9549 7.57824H91.6667V11.1551H93.9549C94.5348 11.1551 94.9845 11.0097 95.3054 10.7189C95.6263 10.428 95.7884 9.96504 95.7884 9.33491C95.7884 8.70311 95.628 8.25184 95.3054 7.98274Z" fill="black"/>
<path d="M97.2442 12.3602C96.5322 12.9536 95.5176 13.2511 94.1972 13.2511H91.6667V17.6202H89.1445V5.47058H94.361C95.5644 5.47058 96.5222 5.78314 97.2375 6.40992C97.9529 7.0367 98.3106 8.00614 98.3106 9.31988C98.3106 10.7523 97.9546 11.7668 97.2442 12.3602ZM95.3054 7.98274C94.9845 7.71364 94.5332 7.57824 93.9549 7.57824H91.6667V11.1551H93.9549C94.5348 11.1551 94.9845 11.0097 95.3054 10.7189C95.6263 10.428 95.7884 9.96504 95.7884 9.33491C95.7884 8.70311 95.628 8.25184 95.3054 7.98274Z" fill="white" stroke="white" stroke-miterlimit="10"/>
<path d="M109.166 7.61981H102.868V10.2005H108.638V12.3098H102.868V15.4337H109.462V17.6183H100.386V5.46869H109.166V7.61981Z" fill="white"/>
<path d="M109.166 7.61981H102.868V10.2005H108.638V12.3098H102.868V15.4337H109.462V17.6183H100.386V5.46869H109.166V7.61981Z" stroke="white" stroke-miterlimit="10"/>
<path d="M120.367 5.46869V7.61981H116.731V17.6183H114.178V7.61981H110.525V5.46869H120.367Z" fill="black"/>
<path d="M120.367 5.46869V7.61981H116.731V17.6183H114.178V7.61981H110.525V5.46869H120.367Z" fill="white" stroke="white" stroke-miterlimit="10"/>
<path d="M123.647 13.8677C123.726 14.4226 123.88 14.8371 124.11 15.1129C124.532 15.6126 125.252 15.8633 126.273 15.8633C126.885 15.8633 127.381 15.7965 127.762 15.6661C128.486 15.4137 128.847 14.9441 128.847 14.2571C128.847 13.856 128.67 13.5451 128.316 13.3261C127.961 13.1122 127.398 12.9216 126.629 12.7578L125.314 12.4687C124.02 12.1829 123.133 11.872 122.65 11.5377C121.831 10.9778 121.421 10.1003 121.421 8.90855C121.421 7.82045 121.822 6.91622 122.623 6.19583C123.423 5.47545 124.6 5.11609 126.153 5.11609C127.45 5.11609 128.555 5.45539 129.469 6.13399C130.383 6.81259 130.863 7.79706 130.908 9.08907H128.468C128.423 8.35866 128.095 7.83884 127.487 7.5313C127.08 7.32739 126.577 7.2271 125.974 7.2271C125.304 7.2271 124.769 7.35914 124.368 7.62323C123.968 7.88731 123.768 8.25502 123.768 8.72803C123.768 9.1626 123.965 9.48686 124.359 9.7008C124.613 9.84288 125.15 10.0117 125.974 10.2039L128.107 10.707C129.041 10.9276 129.741 11.2218 130.208 11.5895C130.931 12.1611 131.294 12.9885 131.294 14.0699C131.294 15.1797 130.865 16.1024 130.007 16.8344C129.15 17.5682 127.936 17.9342 126.37 17.9342C124.771 17.9342 123.512 17.5732 122.596 16.8512C121.68 16.1291 121.222 15.1346 121.222 13.871H123.647V13.8677Z" fill="black"/>
<path d="M123.647 13.8677C123.726 14.4226 123.88 14.8371 124.11 15.1129C124.532 15.6126 125.252 15.8633 126.273 15.8633C126.885 15.8633 127.381 15.7965 127.762 15.6661C128.486 15.4137 128.847 14.9441 128.847 14.2571C128.847 13.856 128.67 13.5451 128.316 13.3261C127.961 13.1122 127.398 12.9216 126.629 12.7578L125.314 12.4687C124.02 12.1829 123.133 11.872 122.65 11.5377C121.831 10.9778 121.421 10.1003 121.421 8.90855C121.421 7.82045 121.822 6.91622 122.623 6.19583C123.423 5.47545 124.6 5.11609 126.153 5.11609C127.45 5.11609 128.555 5.45539 129.469 6.13399C130.383 6.81259 130.863 7.79706 130.908 9.08907H128.468C128.423 8.35866 128.095 7.83884 127.487 7.5313C127.08 7.32739 126.577 7.2271 125.974 7.2271C125.304 7.2271 124.769 7.35914 124.368 7.62323C123.968 7.88731 123.768 8.25502 123.768 8.72803C123.768 9.1626 123.965 9.48686 124.359 9.7008C124.613 9.84288 125.15 10.0117 125.974 10.2039L128.107 10.707C129.041 10.9276 129.741 11.2218 130.208 11.5895C130.931 12.1611 131.294 12.9885 131.294 14.0699C131.294 15.1797 130.865 16.1024 130.007 16.8344C129.15 17.5682 127.936 17.9342 126.37 17.9342C124.771 17.9342 123.512 17.5732 122.596 16.8512C121.68 16.1291 121.222 15.1346 121.222 13.871H123.647V13.8677Z" fill="white" stroke="white" stroke-miterlimit="10"/>
</svg>
