<svg width="19" height="21" viewBox="0 0 19 21" fill="none" xmlns="http://www.w3.org/2000/svg">
<path d="M9.5 14.2383H5.5V6.23828H9.5C10.5609 6.23828 11.5783 6.65971 12.3284 7.40985C13.0786 8.16 13.5 9.17741 13.5 10.2383C13.5 11.2991 13.0786 12.3166 12.3284 13.0667C11.5783 13.8169 10.5609 14.2383 9.5 14.2383ZM7.5 8.23828V12.2383H9.5C10.0304 12.2383 10.5391 12.0276 10.9142 11.6525C11.2893 11.2774 11.5 10.7687 11.5 10.2383C11.5 9.70785 11.2893 9.19914 10.9142 8.82407C10.5391 8.449 10.0304 8.23828 9.5 8.23828H7.5ZM12.5 2.23828H2.5V18.2383H16.5V6.23828H12.5V2.23828ZM0.5 1.23028C0.5 0.682281 0.947 0.238281 1.499 0.238281H13.5L18.5 5.23828V19.2313C18.5009 19.3626 18.476 19.4928 18.4266 19.6145C18.3772 19.7362 18.3043 19.8469 18.2121 19.9404C18.1199 20.034 18.0101 20.1084 17.8892 20.1595C17.7682 20.2106 17.6383 20.2374 17.507 20.2383H1.493C1.23038 20.2365 0.979017 20.1314 0.793218 19.9458C0.607418 19.7602 0.502095 19.5089 0.5 19.2463V1.23028Z" fill="black"/>
</svg>
