<svg width="19" height="21" viewBox="0 0 19 21" fill="none" xmlns="http://www.w3.org/2000/svg">
<path d="M9.5 14.2388H5.5V6.23877H9.5C10.5609 6.23877 11.5783 6.6602 12.3284 7.41034C13.0786 8.16049 13.5 9.1779 13.5 10.2388C13.5 11.2996 13.0786 12.3171 12.3284 13.0672C11.5783 13.8173 10.5609 14.2388 9.5 14.2388ZM7.5 8.23877V12.2388H9.5C10.0304 12.2388 10.5391 12.0281 10.9142 11.653C11.2893 11.2779 11.5 10.7692 11.5 10.2388C11.5 9.70834 11.2893 9.19963 10.9142 8.82456C10.5391 8.44948 10.0304 8.23877 9.5 8.23877H7.5ZM12.5 2.23877H2.5V18.2388H16.5V6.23877H12.5V2.23877ZM0.5 1.23077C0.5 0.68277 0.947 0.23877 1.499 0.23877H13.5L18.5 5.23877V19.2318C18.5009 19.3631 18.476 19.4933 18.4266 19.615C18.3772 19.7367 18.3043 19.8474 18.2121 19.9409C18.1199 20.0344 18.0101 20.1089 17.8892 20.16C17.7682 20.2111 17.6383 20.2379 17.507 20.2388H1.493C1.23038 20.2369 0.979017 20.1319 0.793218 19.9463C0.607418 19.7606 0.502095 19.5094 0.5 19.2468V1.23077Z" fill="white"/>
</svg>
