<svg width="59" height="65" viewBox="0 0 59 65" fill="none" xmlns="http://www.w3.org/2000/svg">
<g filter="url(#filter0_b_644_7060)">
<path d="M10.9469 62.7466C5.17694 66.0563 0.499023 63.3449 0.499023 56.6954V7.62474C0.499023 0.968571 5.17694 -1.73929 10.9469 1.56732L53.8371 26.1646C59.609 29.4755 59.609 34.8396 53.8371 38.1497L10.9469 62.7466Z" fill="url(#paint0_linear_644_7060)"/>
<path d="M10.4493 61.8791L10.4494 61.8791L53.3396 37.2823C56.0451 35.7307 57.166 33.8394 57.166 32.1574C57.166 30.4755 56.045 28.5839 53.3395 27.032L10.4497 2.43494C10.4496 2.43489 10.4495 2.43484 10.4494 2.43479C7.74787 0.886692 5.5347 0.870991 4.06062 1.72521C2.58653 2.57943 1.49902 4.50787 1.49902 7.62474V56.6954C1.49902 59.8086 2.58632 61.7364 4.0605 62.5904C5.53462 63.4444 7.74785 63.4287 10.4493 61.8791Z" stroke="url(#paint1_linear_644_7060)" stroke-width="2"/>
</g>
<defs>
<filter id="filter0_b_644_7060" x="-16.501" y="-16.8423" width="91.667" height="98" filterUnits="userSpaceOnUse" color-interpolation-filters="sRGB">
<feFlood flood-opacity="0" result="BackgroundImageFix"/>
<feGaussianBlur in="BackgroundImage" stdDeviation="8.5"/>
<feComposite in2="SourceAlpha" operator="in" result="effect1_backgroundBlur_644_7060"/>
<feBlend mode="normal" in="SourceGraphic" in2="effect1_backgroundBlur_644_7060" result="shape"/>
</filter>
<linearGradient id="paint0_linear_644_7060" x1="29.3325" y1="64.1577" x2="29.3325" y2="0.157623" gradientUnits="userSpaceOnUse">
<stop stop-color="#0BEFD8" stop-opacity="0.26"/>
<stop offset="1" stop-color="#0BEFD8"/>
</linearGradient>
<linearGradient id="paint1_linear_644_7060" x1="53.5593" y1="83.1546" x2="-18.8153" y2="10.2293" gradientUnits="userSpaceOnUse">
<stop stop-color="#F213FF"/>
<stop offset="0.537912" stop-color="#3F2FF1" stop-opacity="0"/>
<stop offset="1" stop-color="#0BEFD8"/>
</linearGradient>
</defs>
</svg>
