<svg width="20" height="20" viewBox="0 0 20 20" fill="none" xmlns="http://www.w3.org/2000/svg">
<path fill-rule="evenodd" clip-rule="evenodd" d="M20 10C20 15.5228 15.5228 20 10 20C4.47715 20 0 15.5228 0 10C0 4.47715 4.47715 0 10 0C15.5228 0 20 4.47715 20 10ZM9.21157 10.4678L9.16499 10.5456L9.16497 10.5456C9.12925 10.6054 9.09354 10.6651 9.0572 10.7245C8.85555 11.0542 8.64553 11.3783 8.39957 11.6776C8.22377 11.8915 8.03277 12.0897 7.80045 12.2443C7.57423 12.3948 7.32671 12.4801 7.05506 12.5009C6.78098 12.522 6.51387 12.4968 6.25542 12.4013C5.90253 12.2708 5.63627 12.0365 5.4447 11.7155C5.26237 11.4098 5.16964 11.0753 5.12661 10.7246C5.10147 10.5202 5.09139 10.3148 5.09934 10.1092C5.1161 9.67398 5.16935 9.2437 5.27614 8.82024C5.37711 8.41963 5.51585 8.03336 5.70429 7.66583C5.8977 7.28836 6.13485 6.94113 6.44216 6.64628C6.76835 6.33341 7.14225 6.10414 7.59397 6.02166C8.16711 5.91718 8.67308 6.06766 9.12182 6.42951C9.4615 6.70349 9.73557 7.03866 10.0062 7.37723C10.4415 7.92178 10.8232 8.50268 11.188 9.09564L11.2699 9.2288L11.2699 9.22882C11.5385 9.66597 11.8072 10.1033 12.0951 10.5281C12.2528 10.7607 12.4155 10.9898 12.6173 11.1878C12.7769 11.3445 12.9644 11.4368 13.1899 11.4408C13.4651 11.4456 13.6667 11.3524 13.7992 11.05C13.8792 10.8674 13.9144 10.6731 13.9392 10.4769C13.9712 10.2245 13.9861 9.97096 13.9799 9.71657C13.9658 9.14021 13.8773 8.57536 13.7153 8.02215C13.6126 7.67137 13.482 7.33137 13.308 7.00927C13.1676 6.74906 13.005 6.50461 12.7861 6.30189C12.6183 6.14645 12.4301 6.03032 12.1965 6.0042C12.1929 6.00376 12.1894 6.00237 12.1841 6.00032L12.1775 5.99776L12.1725 5.99597C12.1966 5.98304 12.2162 5.98507 12.2352 5.98703L12.2407 5.98759C12.6924 6.03345 13.0881 6.21047 13.4347 6.50021C13.7291 6.74636 13.9649 7.04192 14.1623 7.36942C14.4104 7.78082 14.5847 8.22259 14.7061 8.68623C14.8055 9.06568 14.8617 9.45153 14.8898 9.84305C14.9205 10.2698 14.9016 10.6917 14.8046 11.1083C14.7204 11.4706 14.5727 11.8036 14.3087 12.0734C14.0918 12.2951 13.8268 12.4307 13.5199 12.4808C13.1761 12.5369 12.8394 12.5132 12.5152 12.3789C12.2325 12.2617 12.005 12.069 11.8023 11.845C11.4435 11.4483 11.1623 10.9969 10.8855 10.5425C10.7893 10.3845 10.7011 10.2219 10.613 10.0594L10.613 10.0594L10.6129 10.0594L10.6129 10.0593C10.5385 9.92208 10.464 9.7848 10.3847 9.65027C10.1004 9.16816 9.77992 8.70967 9.45941 8.25118L9.4594 8.25117L9.4594 8.25116L9.45939 8.25115L9.43764 8.22004C9.27447 7.98666 9.10364 7.76009 8.90341 7.55681C8.74152 7.39256 8.56714 7.24379 8.35143 7.15506C7.96333 6.99564 7.60235 7.04448 7.27375 7.30895C7.00947 7.5216 6.82089 7.79359 6.66539 8.09085C6.40495 8.58899 6.25897 9.12218 6.1864 9.67682C6.15332 9.92908 6.13926 10.1832 6.15502 10.4371C6.17504 10.7598 6.25655 11.0643 6.45906 11.3251C6.66866 11.595 6.946 11.7037 7.28454 11.6679C7.90511 11.6023 8.42158 11.3272 8.85669 10.8893C8.96987 10.7754 9.07226 10.6514 9.16144 10.5172C9.16866 10.5064 9.17601 10.4956 9.18338 10.4849L9.20035 10.46C9.2039 10.4631 9.20773 10.4655 9.21157 10.4678ZM10.2586 11.6595C10.2329 11.6583 10.2097 11.6573 10.1893 11.6562C9.78973 11.6439 9.52304 11.7068 9.25763 11.7778C9.13636 11.8103 9.01707 11.8491 8.9127 11.9228C8.85973 11.9601 8.82721 12.0085 8.81528 12.0739C8.78972 12.214 8.78858 12.3543 8.82139 12.492C8.88188 12.7457 8.98697 12.9771 9.2227 13.1145C9.38373 13.2083 9.507 13.3335 9.60967 13.485C9.67811 13.5859 9.74968 13.685 9.84213 13.7667C9.93287 13.8467 10.024 13.8409 10.1036 13.75C10.1653 13.6795 10.2183 13.6023 10.2713 13.525C10.3319 13.4365 10.4001 13.3548 10.4836 13.2861C10.5945 13.1947 10.7017 13.0987 10.8015 12.9951C10.9762 12.8137 11.1208 12.6132 11.194 12.3681C11.27 12.1138 11.191 11.9113 10.967 11.7895C10.9228 11.7655 10.8764 11.7464 10.8278 11.7331C10.6168 11.675 10.4006 11.6656 10.2586 11.6595ZM9.66618 12.7856C9.55258 12.7861 9.48711 12.7201 9.48683 12.6046C9.48655 12.4931 9.554 12.4277 9.66973 12.4273C9.76942 12.4268 9.84383 12.5062 9.84412 12.6131C9.8444 12.7184 9.77581 12.785 9.66618 12.7856ZM10.5478 12.6382C10.5473 12.7441 10.4804 12.8069 10.368 12.8069C10.2542 12.807 10.1892 12.7407 10.1899 12.6256C10.1906 12.5176 10.2633 12.4487 10.3762 12.4491C10.4733 12.4496 10.5482 12.5322 10.5478 12.6382ZM12.6495 9.46005C12.301 9.45948 12.0115 9.16751 12.0131 8.81818C12.0146 8.47268 12.3071 8.18157 12.6521 8.18242C13.0006 8.18327 13.2915 8.47523 13.2907 8.82329C13.29 9.1732 13.0006 9.46062 12.6495 9.46005ZM12.4858 8.52934C12.4849 8.47509 12.452 8.44357 12.3969 8.44399C12.3402 8.44428 12.3064 8.47836 12.307 8.53445C12.3076 8.58998 12.3429 8.62406 12.3992 8.62306C12.4543 8.62207 12.4868 8.58685 12.4858 8.52934ZM7.64837 9.45902C7.99401 9.46016 8.28271 9.17032 8.28328 8.82155C8.28385 8.46952 7.99771 8.18139 7.64709 8.18125C7.29591 8.18096 7.00537 8.47336 7.00707 8.82525C7.00877 9.16919 7.30088 9.45788 7.64837 9.45902ZM7.39319 8.43785C7.44445 8.43885 7.4845 8.48031 7.48379 8.53158C7.48293 8.58327 7.44232 8.62246 7.39035 8.62175C7.33809 8.6209 7.29904 8.58071 7.29989 8.52874C7.30074 8.47733 7.34221 8.43686 7.39319 8.43785Z" fill="white"/>
</svg>
