<svg width="41" height="34" viewBox="0 0 41 34" fill="none" xmlns="http://www.w3.org/2000/svg">
<path d="M12.6207 33.5C27.7157 33.5 35.9732 20.9925 35.9732 10.165C35.9732 9.81502 35.9732 9.46002 35.9582 9.11002C37.5658 7.94624 38.9533 6.5054 40.0557 4.85502C38.554 5.51715 36.9626 5.95354 35.3332 6.15002C37.0495 5.12412 38.335 3.50995 38.9507 1.60752C37.3381 2.56283 35.5732 3.23346 33.7332 3.59002C32.4961 2.27258 30.8592 1.39982 29.0759 1.10692C27.2926 0.814017 25.4625 1.11733 23.869 1.96987C22.2756 2.82241 21.0077 4.1766 20.2618 5.82267C19.5159 7.46875 19.3336 9.31486 19.7432 11.075C16.48 10.9114 13.2877 10.0637 10.3733 8.58688C7.45884 7.11007 4.88737 5.03713 2.82566 2.50252C1.77901 4.31023 1.4596 6.44853 1.93228 8.48319C2.40496 10.5179 3.6343 12.2963 5.37066 13.4575C4.06951 13.4133 2.79697 13.0639 1.65566 12.4375V12.55C1.65791 14.4437 2.31393 16.2786 3.51285 17.7444C4.71176 19.2103 6.38003 20.2172 8.23566 20.595C7.53132 20.7891 6.80374 20.8858 6.07316 20.8825C5.55812 20.8841 5.04412 20.8364 4.53816 20.74C5.06263 22.3702 6.08385 23.7954 7.45878 24.8162C8.83371 25.837 10.4935 26.4021 12.2057 26.4325C9.29705 28.717 5.70417 29.956 2.00566 29.95C1.35397 29.9528 0.702722 29.9152 0.0556641 29.8375C3.80945 32.2307 8.16891 33.5014 12.6207 33.5Z" fill="url(#paint0_linear_558_6373)"/>
<defs>
<linearGradient id="paint0_linear_558_6373" x1="20.0557" y1="0.998291" x2="20.0557" y2="33.5" gradientUnits="userSpaceOnUse">
<stop stop-color="white"/>
<stop offset="1" stop-color="white" stop-opacity="0.35"/>
</linearGradient>
</defs>
</svg>
