<svg width="20" height="20" viewBox="0 0 20 20" fill="none" xmlns="http://www.w3.org/2000/svg">
<path d="M10 0C4.48 0 0 4.48 0 10C0 15.52 4.48 20 10 20C15.52 20 20 15.52 20 10C20 4.48 15.52 0 10 0ZM12.97 15.08H11.32V16.5C11.32 16.91 10.98 17.25 10.57 17.25C10.16 17.25 9.82 16.91 9.82 16.5V15.08H8.84H8.61V16.5C8.61 16.91 8.27 17.25 7.86 17.25C7.45 17.25 7.11 16.91 7.11 16.5V15.08H6.78H5.05C4.64 15.08 4.3 14.74 4.3 14.33C4.3 13.92 4.64 13.58 5.05 13.58H6.03V10V6.42H5.05C4.64 6.42 4.3 6.08 4.3 5.67C4.3 5.26 4.64 4.92 5.05 4.92H6.78H7.11V3.5C7.11 3.09 7.45 2.75 7.86 2.75C8.27 2.75 8.61 3.09 8.61 3.5V4.92H8.84H9.82V3.5C9.82 3.09 10.16 2.75 10.57 2.75C10.98 2.75 11.32 3.09 11.32 3.5V4.92H12.2C13.75 4.92 15.12 6.28 15.12 7.84C15.12 8.51 14.88 9.12 14.5 9.62C15.51 10.11 16.2 11.07 16.2 12.18C16.2 13.77 14.75 15.08 12.97 15.08Z" fill="white"/>
</svg>
